<svg width="345" height="306" viewBox="0 0 345 306" fill="none" xmlns="http://www.w3.org/2000/svg">
<path d="M169 264.8L172.1 99H177.2L178.3 264.8H169Z" fill="#395442"/>
<path d="M189.137 111.332C189.302 111.445 189.524 111.475 189.689 111.587L230.932 127.255L231.443 126.151L192.842 104.659C192.594 104.49 192.29 104.404 192.068 104.374L176.424 99.2695L174.579 103.216L189.137 111.332Z" fill="#395442"/>
<path d="M158.509 98.2463C158.31 98.2244 158.101 98.3019 157.902 98.2801L114.133 103.829L114.201 105.043L158.374 105.877C158.672 105.91 158.982 105.843 159.191 105.766L175.4 102.921L175.174 98.57L158.509 98.2463Z" fill="#395442"/>
<path d="M178.554 86.8844C178.59 86.6877 178.528 86.4729 178.565 86.2762L176.242 42.2182L175.026 42.1966L170.953 86.19C170.899 86.485 170.943 86.7982 171.005 87.013L172.653 103.386L177.009 103.48L178.554 86.8844Z" fill="#395442"/>
</svg>
