<?xml version="1.0" encoding="utf-8"?>
<!-- Generator: Adobe Illustrator 27.0.0, SVG Export Plug-In . SVG Version: 6.00 Build 0)  -->
<svg version="1.1" id="Layer_1" xmlns="http://www.w3.org/2000/svg" xmlns:xlink="http://www.w3.org/1999/xlink" x="0px" y="0px"
	 viewBox="0 0 54.05 16.35" style="enable-background:new 0 0 54.05 16.35;" xml:space="preserve">
<path d="M51.19,4.06c0,0-4.24-0.61-22.91,3.47C17.51,9.89,3.11,5.91,3.11,5.91c-1.77-0.45-3.97-0.57-0.85,1.7
	c3.12,2.27,8.93,2.69,16.44,2.69s10.06-0.16,12.61,1.39s7.37,2.46,13.8,2.45c5.23-0.01-1.96-3.82-1.96-3.82l0.07-1.17
	c0,0-4.39-2.26,10.03-4.54C54.71,4.4,51.19,4.06,51.19,4.06z"/>
<path d="M29.57,6.77c0,0-0.13-0.02-0.19-0.04c-1.08-0.2-2.23-0.14-3.81-1.58c0,0-0.4,0.16,0.23,1.48c0.63,1.32-0.83,0.85-0.83,0.85
	s-1.92-0.27-3.19-0.16c-0.64,0.05,6.8,1.91,9.36,4.13c0,0,1.6,1.04,1.61,1.04c1.47,0.95,4.48,1.69,6.18,2.01
	c1,0.18,2.18,0.34,3.55,0.41c2.75,0.16,4.22,0.06,5.12-0.8c0.11-0.06,0.11-0.09,0.33,0c1.52,0.59,1.72,0.58,1.72,0.58
	c-0.01-0.39-0.8-1.22-1.27-1.71c-1.34-2.14-1.15-2.27-2.66-2.92c0,0-0.79-0.18-5.07-1.93c-3.49-1.43-11.21-1.39-11.21-1.39"/>
</svg>
