<?xml version="1.0" encoding="utf-8"?>
<!-- Generator: Adobe Illustrator 27.0.0, SVG Export Plug-In . SVG Version: 6.00 Build 0)  -->
<svg version="1.1" id="Layer_1" xmlns="http://www.w3.org/2000/svg" xmlns:xlink="http://www.w3.org/1999/xlink" x="0px" y="0px"
	 viewBox="0 0 32.22 13.89" style="enable-background:new 0 0 32.22 13.89;" xml:space="preserve">
<path d="M24.79,0.76c-7.66-0.25-12.85,6.16-12.85,6.16s-5.81-1.28-9.07,0c-3.26,1.28-2.23,4.26-2.23,4.26
	c0.43,1.12-0.01,0.03,1.65-1.62c1.79-1.77,4.34-1.45,7.95,1.84c2.27,2.07,4.89,1.28,6.66,0.5c1.77-0.78,2.62-0.38,1.77-3.35
	c-0.85-2.98,0.21-4.19,4.75-5.6c3.85-1.19,8.24-0.45,8.24-0.45S31.95,0.99,24.79,0.76z"/>
<path d="M10.17,10.56c0,0-0.07,0.01-0.1,0.01c-0.56,0.08-0.93,0.24-1.95-0.21c0,0-0.02,0.53,0.51,1.08c0.53,0.54-0.63,1-0.63,1
	s-0.37,0.18-0.85,0.46c-0.21,0.12,4.48,0.11,5.18,0.16c0,0,0,0,0,0c1.73,0.01,2.81-0.13,3.7-0.25c0.52-0.08,1.12-0.19,1.81-0.38
	c1.38-0.38,2.08-0.67,2.38-1.24c0.04-0.05,0.04-0.06,0.16-0.06c0.84,0.04,0.94,0,0.94,0c-0.07-0.19-0.6-0.47-0.91-0.63
	c0.03-0.76-0.73-0.55-2.04-1.43c0,0-0.71-0.25-2.62,0.13s-5.67,1.37-5.67,1.37"/>
</svg>
