<?xml version="1.0" encoding="utf-8"?>
<!-- Generator: Adobe Illustrator 27.0.0, SVG Export Plug-In . SVG Version: 6.00 Build 0)  -->
<svg version="1.1" id="Layer_1" xmlns="http://www.w3.org/2000/svg" xmlns:xlink="http://www.w3.org/1999/xlink" x="0px" y="0px"
	 viewBox="0 0 37.99 34.89" style="enable-background:new 0 0 37.99 34.89;" xml:space="preserve">
<path d="M13.62,30.58c-0.03-0.03,0.06-0.05,0.03-0.07c0-0.01,0-0.01,0-0.02c0.09-1.13,1.98-4.91,6.05-6.52
	c4.06-1.61,10.39-3.21,12.66-3.69c2.27-0.47,5.1-0.94,5.1-1.89c0-0.94-10.27-0.51-13.04-0.57c-4.46-0.09-8.35,2.1-8.35,2.1
	s-1.98,1.43-3.26,2.06c-2.69,1.31-3.33-1.38-3.33-1.38S7.35,11.22,7.07,8.35S6.42,1.13,5.24,0.98c0,0-0.48,1.8-0.66,3.81
	c-0.36,4.04,1.51,7.65,1.61,12.19c0.06,2.83-0.37,4.63-0.86,5.86c0,0,2.48,1.47,6.35,5.9"/>
<path d="M14.34,29.37c0,0.01,0.07,0.06,0.1,0.09c0.58,0.5,0.9,0.95,2.34,1.13c0,0-0.33,0.66-1.29,0.95
	c-0.96,0.28,0.39,1.95,0.39,1.95s0.39,0.57,0,0.71c-0.3,0.11-4.83-2.89-5.65-3.32c0,0,0,0,0,0c-1.81-0.82-3.58-2.57-4.07-3.06
	c-0.52-0.39-1.1-0.9-1.76-1.62c-1.31-1.44-1.91-2.4-1.87-3.31c-0.05-0.02-0.09-0.03-0.15-0.07c-0.94-0.61-1.73-0.68-1.73-0.68
	c0.21-0.18,1.65-0.13,2.11-0.11c0.47-0.95,1.19-0.15,3.25-0.29c0,0,0.96,0.2,2.88,2.02s5.51,5.69,5.51,5.69"/>
</svg>
