<svg width="842" height="596" viewBox="0 0 842 596" fill="none" xmlns="http://www.w3.org/2000/svg">
<path d="M651.85 310.49L554.93 262.16L663.22 295.05" stroke="#3F4444" stroke-miterlimit="10"/>
<path d="M671.2 283.76H702.64V315.4H654.98L659.39 293.43C660.52 287.81 665.46 283.76 671.2 283.76Z" fill="#2E8A9D"/>
<path d="M699.16 359.68H764.93C769.64 359.68 773.46 355.86 773.46 351.15V346.53H699.16V359.68Z" fill="#1D1D1B"/>
<path d="M748.83 304.93V354.74H815C817.8 354.74 820.07 352.46 820.07 349.66V315.58C820.07 310.11 815.95 305.61 810.65 305C810.24 304.95 809.82 304.93 809.41 304.93H748.83Z" fill="#72B0BD"/>
<path d="M738.343 275.451L737.694 276.792L748.213 281.89L748.863 280.549L738.343 275.451Z" fill="#3C3C3B"/>
<path d="M743.31 275.1C743.28 274.77 743.39 274.39 743.19 274.12C743.01 273.88 742.68 273.85 742.38 273.84C741.35 273.79 740.32 273.74 739.29 273.7C739 273.69 738.66 273.69 738.48 273.92C738.32 274.12 738.36 274.41 738.4 274.66C738.45 274.97 738.52 275.3 738.75 275.52C738.95 275.7 739.22 275.77 739.49 275.82C740.55 276.04 741.61 276.27 742.68 276.39C742.88 276.41 743.1 276.43 743.26 276.3C743.43 276.17 743.47 275.93 743.44 275.72C743.41 275.51 743.33 275.31 743.31 275.1Z" fill="#EDBB86"/>
<path d="M737.07 277.71C737.16 277.71 737.24 277.7 737.33 277.69L759 273.76C759.78 273.62 760.31 272.87 760.16 272.08C760.02 271.29 759.27 270.78 758.48 270.92L736.81 274.85C736.03 274.99 735.5 275.74 735.65 276.53C735.78 277.22 736.39 277.71 737.07 277.71Z" fill="#3C3C3B"/>
<path d="M748.78 290.29L752.92 289.57L751.02 278.64C750.91 278.03 750.33 277.62 749.72 277.72L747.79 278.06C747.18 278.17 746.77 278.75 746.87 279.36L748.78 290.29Z" fill="#3C3C3B"/>
<path d="M748.81 354.74L750.68 354.48C759.23 353.3 765.21 345.41 764.04 336.86L757.14 286.78C756.8 284.8 754.91 283.48 752.93 283.82L746.71 284.9C744.73 285.24 743.41 287.13 743.75 289.11L748.81 354.74Z" fill="#72B0BD"/>
<path d="M722.7 344.26H674.18V350.22H722.7V344.26Z" fill="#1D1D1B"/>
<path d="M643.86 325.12V354.74H672C673.79 354.74 675.24 353.29 675.24 351.5V351.4C675.24 347.89 678.08 345.05 681.59 345.05H715.95C719.46 345.05 722.3 347.89 722.3 351.4V351.5C722.3 353.29 723.75 354.74 725.54 354.74H750.93V339.81C750.93 337.81 749.31 336.19 747.31 336.19H727.27L724.81 316.89L723.52 306.79C723.24 304.6 721.38 302.95 719.16 302.95H666.04C656.71 302.95 648.72 308.72 645.44 316.89C644.42 319.42 643.86 322.2 643.86 325.12Z" fill="#72B0BD"/>
<path d="M702.38 273.71C704.51 273.8 706.46 274.24 706.64 276.37L708.49 300.1C708.63 301.71 709.97 302.95 711.59 302.95H721.76C722.96 302.95 723.93 303.92 723.93 305.12V309.5H707.37C704.76 309.5 702.64 307.38 702.64 304.77V302.95L700.95 275.16C700.9 274.35 701.56 273.68 702.36 273.71H702.38Z" fill="#1D1D1B"/>
<path d="M643.86 325.12V336.23H727.34V336.18H727.26L724.8 316.88H645.44C644.42 319.42 643.86 322.2 643.86 325.12Z" fill="#3C3C3B"/>
<path d="M677.35 293.01H694.91C695.32 293.01 695.65 292.68 695.65 292.27V288.9C695.65 288.49 695.32 288.16 694.91 288.16H677.35C676.94 288.16 676.61 288.49 676.61 288.9V292.27C676.6 292.67 676.94 293.01 677.35 293.01Z" fill="white"/>
<path d="M686.12 295.7C686.12 296.06 686.41 296.35 686.77 296.35H695C695.36 296.35 695.65 296.06 695.65 295.7C695.65 295.34 695.36 295.05 695 295.05H686.77C686.41 295.05 686.12 295.34 686.12 295.7Z" fill="#3C3C3B"/>
<path d="M686.12 297.78C686.12 298.14 686.41 298.43 686.77 298.43H695C695.36 298.43 695.65 298.14 695.65 297.78C695.65 297.42 695.36 297.13 695 297.13H686.77C686.41 297.14 686.12 297.43 686.12 297.78Z" fill="#3C3C3B"/>
<path d="M686.12 299.87C686.12 300.23 686.41 300.52 686.77 300.52H695C695.36 300.52 695.65 300.23 695.65 299.87C695.65 299.51 695.36 299.22 695 299.22H686.77C686.41 299.22 686.12 299.51 686.12 299.87Z" fill="#3C3C3B"/>
<path d="M738.64 276.05C739.23 276.68 739.38 276.73 740.14 276.72C741.44 276.71 741.85 276.67 743.22 276.59C742.83 277.29 742.85 277.98 742.22 278.47C741.57 278.98 740.74 279.19 739.94 279.38C739.04 279.6 738.12 279.83 737.2 279.79C736.13 279.74 735.12 279.35 734.12 278.97C733.94 278.9 733.75 278.82 733.64 278.67C733.52 278.5 733.52 278.27 733.55 278.06C733.69 276.92 734.4 275.93 735.21 275.1C735.67 274.63 736.18 274.18 736.81 273.99C738.26 273.54 740 274.27 741.48 273.99C741.75 273.94 742.05 273.85 742.27 274C742.48 274.14 742.53 274.43 742.44 274.66C742.35 274.89 742.14 275.06 741.92 275.16C741.45 275.39 740.9 275.38 740.38 275.43C739.85 275.49 738.98 275.66 738.64 276.05Z" fill="#FFC990"/>
<path d="M718.97 263.74L711.88 262.42L713.38 255.57L719.68 256.05L718.97 263.74Z" fill="#FFC990"/>
<path d="M723.13 261.39C722.76 261.88 722.23 262.21 721.55 262.15L720.07 262C719.59 261.91 719.06 261.69 718.53 261.34C718.52 261.34 718.52 261.34 718.53 261.34C717.11 260.39 715.79 258.55 716.02 256.33C715.99 256.33 715.97 256.33 715.94 256.32C715.93 256.32 715.92 256.32 715.92 256.32C714.83 256.2 713.03 257.15 712.99 256.08C712.95 254.89 711.78 253.08 711.75 251.52C712.41 244.62 716.66 245.29 719.23 245.45C721.29 245.67 723.21 246.79 724.16 248.98C724.44 249.63 724.64 250.37 724.73 251.21C724.78 251.65 724.79 252.1 724.78 252.59C724.59 253.03 724.39 253.39 724.39 253.39L724.53 253.76L725.14 255.42C725.28 255.85 724.99 256.3 724.54 256.37L723.87 256.51C723.83 256.97 723.83 259.57 723.83 259.57C723.77 260.18 723.54 260.88 723.13 261.39Z" fill="#FFC990"/>
<path d="M713.03 257.69C717.63 259 715.35 253.5 715.35 253.5C715.35 253.5 716.29 255.25 716.64 255.74C717.4 255.78 717.4 255.78 718.09 255.77C718.74 249.91 717.76 247.2 724.15 248.98C723.41 246.36 720.65 244.18 718.58 244.58C715.18 245.24 711.98 246.12 711.46 249.55C711.17 251.54 710.89 252.65 713.03 257.69Z" fill="#131313"/>
<path d="M714.53 253.9C714.46 254.98 715.3 256.29 716.01 256.33C716.72 256.37 716.69 255.49 716.77 254.41C716.82 253.69 717.06 252.69 716.3 252.41C715.64 252.17 714.63 252.31 714.53 253.9Z" fill="#FFC990"/>
<path d="M724.58 250.27L719.32 250.8C719.31 250.8 719.31 250.8 719.31 250.8L714.14 251.32L713.97 251.34L713.75 251.36L711.27 251.61L711.36 249.02C711.52 247.02 713.26 245.08 715.23 244.69L718.39 244.06C721.17 243.51 723.62 245.55 724.23 248.31C724.25 248.39 724.26 248.47 724.28 248.56L724.4 249.21L724.58 250.27Z" fill="#EED484"/>
<path d="M729.91 249.76C729.33 250.71 728.39 251.08 727.07 251.2C726.24 251.28 725.26 251.24 724.13 251.19C722.93 251.13 719.48 250.82 719.31 250.8C720.89 250.03 722.43 249.46 724.39 249.2C724.39 249.2 725.58 249.28 726.86 249.39C728.32 249.51 729.91 249.66 729.91 249.76Z" fill="#D3B560"/>
<path opacity="0.1" d="M724.39 253.39L724.53 253.77C720.88 253.48 717.33 252.2 713.75 251.36L713.97 251.34L714.11 251.37C714.12 251.36 714.13 251.34 714.13 251.33L719.3 250.81C719.3 250.81 719.3 250.81 719.31 250.81C719.48 250.83 722.93 251.15 724.13 251.2C724.34 251.21 724.53 251.22 724.73 251.22C724.78 251.66 724.79 252.11 724.78 252.6C724.6 253.03 724.39 253.39 724.39 253.39Z" fill="#050504"/>
<path opacity="0.1" d="M723.13 261.39C722.76 261.88 722.23 262.21 721.55 262.15L720.07 262C719.59 261.91 719.06 261.69 718.53 261.34C718.52 261.34 718.52 261.34 718.53 261.34C718.15 260.71 717.97 259.97 717.91 259.24C717.85 258.48 717.91 257.71 717.97 256.95C717.99 257.63 718.25 258.28 718.64 258.84C719.02 259.4 719.53 259.86 720.07 260.27C720.61 260.68 721.2 261.03 721.84 261.23C722.25 261.36 722.7 261.42 723.13 261.39Z" fill="#050504"/>
<path d="M708.4 300.65L725.62 296.52L721.54 293.77L721.02 292.01L707.8 294.12L708.11 297.48L708.36 300.25L708.4 300.65Z" fill="#D3B560"/>
<path d="M728.91 335.21C728.88 335.29 728.89 335.38 728.94 335.46C728.98 335.54 729.05 335.59 729.14 335.62L730.22 335.91C730.53 336 730.86 336.04 731.18 336.05L733.82 336.12C733.89 336.12 733.96 336.13 734.02 336.13L740.01 336.58C740.76 336.64 741.53 336.61 742.27 336.5C743.59 336.3 744.82 336.02 745.8 335.54C745.94 335.47 746.02 335.31 745.99 335.16L745.86 334.46L729.31 333.88L728.91 335.21Z" fill="#3C3C3B"/>
<path d="M730.22 329.15C732.7 330.98 734.37 329.78 735.5 328.98C734.96 327.88 734.65 326.09 736.44 326.2C736.69 326.21 736.59 326.8 736.89 327.64C737.91 330.51 743.83 331.45 745.43 332.81C745.91 333.18 746.11 334.41 745.78 334.52C743.95 335.15 743.15 335.21 741.69 335.36C740.48 335.49 739.26 335.44 738.06 335.23L735.42 334.59C735.07 334.53 734.71 334.48 734.35 334.45L729.27 334.08C729.04 332.71 729.31 330.69 730.22 329.15Z" fill="#3C3C3B"/>
<path d="M729.64 330.41C730.52 330.77 730.51 330.02 731.78 329.96C731.62 329.74 731.32 329.69 731.15 329.02C731.03 328.53 730.91 328.05 730.68 327.92L730.61 327.89C730.52 327.86 730.42 327.86 730.34 327.91C730.26 327.96 730.2 328.04 730.18 328.13C730.06 328.67 729.86 329.66 729.64 330.41Z" fill="#EDEDED"/>
<path d="M711.13 303.28C711.77 303.36 725.07 305.67 731.77 305.86C731.96 305.89 737.05 305.26 737.48 302.6L737.5 302.49C737.83 300.45 738.06 297.73 736.25 297.06C735.43 296.76 733.98 296.62 733.15 296.49L722.24 294.75L713.87 293.42C712.51 293.07 707.7 291.63 707.62 293C707.41 296.86 707.44 302.84 711.13 303.28Z" fill="#EED484"/>
<path d="M729.19 331.45C728.36 320.78 728.54 310.82 730.71 302.26C730.85 299.37 732.07 296.71 734.96 296.86L735.07 296.87C737.95 297.02 740.17 299.48 740.03 302.36L738.55 329.26L729.19 331.45Z" fill="#EED484"/>
<path d="M707.63 293.01L721.54 293.77C722.49 290.3 722.71 286.11 722.68 282.66C722.65 278.84 722.31 275.92 722.31 275.8C722.31 268.16 718.86 263.75 718.86 263.75L718.28 263.57L718.17 263.05C717.99 262.18 717.38 261.46 716.55 261.14L712.32 259.56L711.87 261.33C702.43 270.04 706.78 286.49 707.63 293.01Z" fill="#EED484"/>
<path opacity="0.1" d="M710.08 270.25L712.77 283.86C713.4 287.03 715.3 289.8 718.03 291.53L721.54 293.75C722.49 290.28 722.71 286.09 722.68 282.64V279.19L717 269.38L710.08 270.25Z" fill="#050504"/>
<path d="M718.11 280.2L734.4 276.66L736.6 279.58L721.24 286.33C719.98 286.99 718.46 287.09 717.2 286.43C716.3 285.95 715.59 285.2 715.41 284.28L715.4 284.21C715.05 282.36 716.26 280.56 718.11 280.2Z" fill="#EED484"/>
<path d="M710.53 272.02L715.69 285.01L722.93 283.74L717.62 269.65C717.03 267.82 714.89 265 712.54 265.85C712.55 265.85 708.71 267.28 710.53 272.02Z" fill="#EED484"/>
<path opacity="0.1" d="M720.51 308.25L727.26 336.19L738.53 329.26C731.77 325.23 730.34 312.69 733.05 303.86C725.69 303.28 716.26 302.49 713.26 298.62C709.84 294.29 707.73 285.65 705.89 276.1V302.48C705.89 304.43 707.3 306.09 709.22 306.4L720.51 308.25Z" fill="#050504"/>
<path d="M756.629 272.875L750.001 279.875L751.083 280.9L757.711 273.9L756.629 272.875Z" fill="#3C3C3B"/>
<path d="M748.651 274.155L747.186 274.427L748.386 280.887L749.851 280.615L748.651 274.155Z" fill="#3C3C3B"/>
<path d="M760.82 304.93V314.97C760.82 318.05 763.32 320.55 766.4 320.55H805.07C808.15 320.55 810.65 318.05 810.65 314.97V305C810.24 304.95 809.82 304.93 809.41 304.93H760.82Z" fill="#2E8A9D"/>
<path d="M802.28 331.89C802.28 332.4 802.7 332.82 803.21 332.82C803.72 332.82 804.14 332.4 804.14 331.89V324.27C804.14 323.76 803.72 323.34 803.21 323.34C802.7 323.34 802.28 323.76 802.28 324.27V331.89Z" fill="#1D1D1B"/>
<path d="M798.56 331.89C798.56 332.4 798.98 332.82 799.49 332.82C800 332.82 800.42 332.4 800.42 331.89V324.27C800.42 323.76 800 323.34 799.49 323.34C798.98 323.34 798.56 323.76 798.56 324.27V331.89Z" fill="#1D1D1B"/>
<path d="M794.85 331.89C794.85 332.4 795.27 332.82 795.78 332.82C796.29 332.82 796.71 332.4 796.71 331.89V324.27C796.71 323.76 796.29 323.34 795.78 323.34C795.27 323.34 794.85 323.76 794.85 324.27V331.89Z" fill="#1D1D1B"/>
<path d="M791.13 331.89C791.13 332.4 791.55 332.82 792.06 332.82C792.57 332.82 792.99 332.4 792.99 331.89V324.27C792.99 323.76 792.57 323.34 792.06 323.34C791.55 323.34 791.13 323.76 791.13 324.27V331.89Z" fill="#1D1D1B"/>
<path d="M787.41 331.89C787.41 332.4 787.83 332.82 788.34 332.82C788.85 332.82 789.27 332.4 789.27 331.89V324.27C789.27 323.76 788.85 323.34 788.34 323.34C787.83 323.34 787.41 323.76 787.41 324.27V331.89Z" fill="#1D1D1B"/>
<path d="M783.69 331.89C783.69 332.4 784.11 332.82 784.62 332.82C785.13 332.82 785.55 332.4 785.55 331.89V324.27C785.55 323.76 785.13 323.34 784.62 323.34C784.11 323.34 783.69 323.76 783.69 324.27V331.89Z" fill="#1D1D1B"/>
<path d="M779.97 331.89C779.97 332.4 780.39 332.82 780.9 332.82C781.41 332.82 781.83 332.4 781.83 331.89V324.27C781.83 323.76 781.41 323.34 780.9 323.34C780.39 323.34 779.97 323.76 779.97 324.27V331.89Z" fill="#1D1D1B"/>
<path d="M776.25 331.89C776.25 332.4 776.67 332.82 777.18 332.82C777.69 332.82 778.11 332.4 778.11 331.89V324.27C778.11 323.76 777.69 323.34 777.18 323.34C776.67 323.34 776.25 323.76 776.25 324.27V331.89Z" fill="#1D1D1B"/>
<path d="M772.53 331.89C772.53 332.4 772.95 332.82 773.46 332.82C773.97 332.82 774.39 332.4 774.39 331.89V324.27C774.39 323.76 773.97 323.34 773.46 323.34C772.95 323.34 772.53 323.76 772.53 324.27V331.89Z" fill="#1D1D1B"/>
<path d="M768.82 331.89C768.82 332.4 769.24 332.82 769.75 332.82C770.26 332.82 770.68 332.4 770.68 331.89V324.27C770.68 323.76 770.26 323.34 769.75 323.34C769.24 323.34 768.82 323.76 768.82 324.27V331.89Z" fill="#1D1D1B"/>
<path d="M765.1 331.89C765.1 332.4 765.52 332.82 766.03 332.82C766.54 332.82 766.96 332.4 766.96 331.89V324.27C766.96 323.76 766.54 323.34 766.03 323.34C765.52 323.34 765.1 323.76 765.1 324.27V331.89Z" fill="#1D1D1B"/>
<path d="M765.5 315.71C765.5 316.26 765.94 316.7 766.49 316.7H804.98C805.53 316.7 805.97 316.26 805.97 315.71C805.97 315.16 805.53 314.72 804.98 314.72H766.49C765.94 314.72 765.5 315.17 765.5 315.71Z" fill="#72B0BD"/>
<path d="M765.5 309.5C765.5 310.05 765.94 310.49 766.49 310.49H804.98C805.53 310.49 805.97 310.05 805.97 309.5C805.97 308.95 805.53 308.51 804.98 308.51H766.49C765.94 308.51 765.5 308.95 765.5 309.5Z" fill="#72B0BD"/>
<path d="M684.16 305.49H678.28L677.3 307.18L672.14 308.04L670.67 306.76L665.11 308.67L664.73 310.58L660.13 313.07L658.32 312.34L653.69 315.95L653.95 317.88L650.41 321.73L648.46 321.63L645.25 326.55L646.12 328.29L644.02 333.08L642.15 333.62L640.71 339.31L642.1 340.67L641.67 345.89L640.07 347L640.55 352.86L642.31 353.69L643.6 358.76L642.45 360.34L644.81 365.72L646.75 365.94L649.6 370.32L649.03 372.18L653.01 376.5L654.91 376.08L659.04 379.29L659.1 381.24L664.26 384.04L665.93 383.02L670.88 384.72L671.57 386.54L677.36 387.51L678.6 386.01H683.83L685.08 387.51L690.87 386.54L691.56 384.72L696.51 383.02L698.17 384.04L703.34 381.24L703.4 379.29L707.53 376.08L709.43 376.5L713.41 372.18L712.83 370.32L715.69 365.94L717.63 365.72L719.99 360.34L718.84 358.76L720.12 353.69L721.88 352.86L722.37 347L720.77 345.89L720.34 340.67L721.73 339.31L720.29 333.62L718.42 333.08L716.32 328.29L717.19 326.55L713.98 321.63L712.03 321.73L708.49 317.88L708.75 315.95L704.11 312.34L702.3 313.07L697.71 310.58L697.32 308.67L691.77 306.76L690.29 308.04L685.14 307.18L684.16 305.49Z" fill="#1D1D1B"/>
<path d="M703.43 346.45C703.46 358.72 693.54 368.68 681.27 368.71C669.01 368.74 659.04 358.83 659.01 346.56C658.98 334.3 668.9 324.33 681.16 324.29C693.43 324.26 703.4 334.18 703.43 346.45Z" fill="#362A2B"/>
<path d="M681.17 317.13C664.94 317.16 651.82 330.33 651.84 346.55C651.87 362.77 665.04 375.9 681.26 375.88C697.48 375.86 710.61 362.68 710.58 346.46C710.56 330.23 697.39 317.11 681.17 317.13ZM681.26 372.7C666.79 372.72 655.05 361.01 655.03 346.54C655.01 332.07 666.72 320.33 681.18 320.31C695.65 320.28 707.39 331.99 707.42 346.45C707.44 360.92 695.73 372.67 681.26 372.7Z" fill="#DADADA"/>
<path d="M681.19 328.5C671.25 328.52 663.2 336.59 663.22 346.53C663.24 356.48 671.31 364.52 681.25 364.51C691.19 364.49 699.24 356.42 699.22 346.48C699.21 336.53 691.13 328.48 681.19 328.5ZM681.24 357.82C674.99 357.83 669.92 352.77 669.9 346.52C669.89 340.26 674.95 335.19 681.2 335.18C687.45 335.17 692.53 340.23 692.54 346.48C692.55 352.74 687.49 357.81 681.24 357.82Z" fill="#EDEDED"/>
<path d="M681.2 335.19C674.95 335.2 669.89 340.27 669.9 346.53C669.91 352.77 674.99 357.84 681.24 357.83C687.49 357.81 692.55 352.74 692.54 346.49C692.53 340.23 687.45 335.18 681.2 335.19ZM685.54 339.88C686.17 339.25 687.19 339.25 687.83 339.87C688.46 340.5 688.47 341.53 687.84 342.16C687.21 342.79 686.19 342.79 685.56 342.17C684.91 341.53 684.91 340.51 685.54 339.88ZM681.21 338.61C681.73 338.61 682.16 339.03 682.16 339.55C682.16 340.07 681.73 340.49 681.22 340.49C680.7 340.49 680.27 340.07 680.27 339.55C680.26 339.03 680.69 338.61 681.21 338.61ZM674.59 339.89C675.22 339.26 676.25 339.26 676.88 339.88C677.51 340.51 677.51 341.54 676.89 342.17C676.26 342.8 675.24 342.8 674.6 342.18C673.96 341.55 673.96 340.52 674.59 339.89ZM673.32 346.52C673.32 345.99 673.74 345.58 674.26 345.58C674.78 345.58 675.21 346 675.21 346.52C675.21 347.04 674.79 347.47 674.27 347.47C673.75 347.46 673.33 347.04 673.32 346.52ZM676.9 353.13C676.27 353.76 675.25 353.76 674.61 353.13C673.98 352.5 673.97 351.48 674.61 350.84C675.24 350.21 676.26 350.21 676.9 350.84C677.53 351.47 677.53 352.5 676.9 353.13ZM681.23 354.4C680.71 354.4 680.28 353.98 680.28 353.46C680.28 352.94 680.71 352.52 681.22 352.52C681.74 352.52 682.17 352.94 682.16 353.46C682.17 353.98 681.75 354.4 681.23 354.4ZM681.23 350.8C678.86 350.8 676.93 348.88 676.92 346.5C676.91 344.13 678.84 342.2 681.21 342.2C683.58 342.2 685.51 344.12 685.51 346.49C685.52 348.87 683.6 350.8 681.23 350.8ZM687.85 353.11C687.22 353.74 686.19 353.74 685.56 353.11C684.93 352.48 684.93 351.46 685.56 350.82C686.19 350.19 687.21 350.19 687.85 350.82C688.48 351.45 688.48 352.48 687.85 353.11ZM688.18 347.43C687.66 347.43 687.23 347.01 687.23 346.49C687.23 345.97 687.65 345.55 688.17 345.55C688.69 345.55 689.12 345.97 689.11 346.49C689.12 347.01 688.7 347.43 688.18 347.43Z" fill="#C6C6C6"/>
<path d="M681.18 320.31C666.71 320.33 655 332.07 655.03 346.54C655.05 361 666.8 372.71 681.26 372.7C695.73 372.68 707.44 360.93 707.42 346.46C707.39 331.99 695.65 320.28 681.18 320.31ZM699.12 333.27C700.5 332.47 702.18 332.78 702.87 333.96C703.55 335.14 702.99 336.75 701.61 337.56C700.23 338.36 698.55 338.05 697.86 336.86C697.17 335.68 697.74 334.07 699.12 333.27ZM699.22 346.47C699.24 356.41 691.19 364.48 681.25 364.5C671.31 364.51 663.23 356.47 663.22 346.52C663.2 336.58 671.25 328.51 681.19 328.49C691.13 328.48 699.21 336.53 699.22 346.47ZM690.1 326.09C690.9 324.7 692.5 324.13 693.69 324.82C694.88 325.5 695.19 327.17 694.4 328.56C693.6 329.95 691.99 330.51 690.81 329.83C689.62 329.16 689.3 327.48 690.1 326.09ZM681.18 321.48C682.55 321.48 683.66 322.77 683.66 324.37C683.66 325.97 682.56 327.27 681.19 327.27C679.82 327.27 678.71 325.98 678.71 324.38C678.71 322.78 679.82 321.49 681.18 321.48ZM668.67 324.86C669.86 324.18 671.47 324.74 672.27 326.12C673.07 327.5 672.76 329.18 671.58 329.87C670.39 330.55 668.79 329.99 667.98 328.61C667.18 327.22 667.5 325.54 668.67 324.86ZM659.54 334.03C660.22 332.84 661.9 332.53 663.28 333.32C664.67 334.12 665.24 335.73 664.56 336.92C663.88 338.11 662.2 338.42 660.81 337.62C659.42 336.82 658.85 335.21 659.54 334.03ZM656.2 346.54C656.2 345.17 657.49 344.06 659.09 344.06C660.69 344.06 661.98 345.16 661.99 346.53C661.99 347.9 660.7 349.01 659.1 349.01C657.5 349.01 656.21 347.91 656.2 346.54ZM663.32 359.74C661.94 360.53 660.26 360.23 659.57 359.05C658.89 357.87 659.45 356.26 660.84 355.46C662.22 354.66 663.89 354.97 664.58 356.14C665.27 357.33 664.7 358.93 663.32 359.74ZM672.33 366.91C671.53 368.29 669.93 368.86 668.74 368.18C667.55 367.5 667.24 365.82 668.04 364.43C668.84 363.05 670.44 362.47 671.63 363.16C672.82 363.85 673.13 365.53 672.33 366.91ZM681.26 371.51C679.89 371.51 678.78 370.22 678.78 368.62C678.78 367.03 679.88 365.73 681.25 365.73C682.62 365.73 683.73 367.02 683.73 368.62C683.73 370.22 682.62 371.51 681.26 371.51ZM693.77 368.14C692.58 368.82 690.97 368.26 690.17 366.88C689.36 365.5 689.68 363.82 690.86 363.14C692.05 362.45 693.65 363.02 694.45 364.4C695.26 365.78 694.95 367.46 693.77 368.14ZM702.9 358.98C702.22 360.16 700.54 360.48 699.16 359.68C697.77 358.88 697.2 357.28 697.88 356.09C698.56 354.9 700.24 354.59 701.62 355.39C703.01 356.19 703.59 357.79 702.9 358.98ZM703.34 348.94C701.74 348.94 700.44 347.83 700.44 346.47C700.44 345.1 701.73 343.99 703.33 343.99C704.93 343.99 706.23 345.09 706.22 346.46C706.24 347.83 704.94 348.94 703.34 348.94Z" fill="#C6C6C6"/>
<path d="M804.13 335.95H800.44L799.82 337.01L796.58 337.55L795.65 336.75L792.16 337.95L791.92 339.15L789.03 340.72L787.89 340.26L784.98 342.53L785.14 343.74L782.91 346.16L781.69 346.1L779.67 349.19L780.22 350.28L778.9 353.29L777.72 353.63L776.82 357.21L777.69 358.07L777.42 361.35L776.42 362.05L776.72 365.73L777.83 366.25L778.63 369.44L777.91 370.43L779.39 373.81L780.61 373.95L782.41 376.7L782.05 377.87L784.55 380.59L785.75 380.33L788.34 382.35L788.38 383.57L791.62 385.33L792.67 384.69L795.78 385.76L796.21 386.9L799.86 387.51L800.64 386.57H803.93L804.71 387.51L808.35 386.9L808.78 385.76L811.89 384.69L812.94 385.33L816.19 383.57L816.22 382.35L818.82 380.33L820.02 380.59L822.52 377.87L822.15 376.7L823.95 373.95L825.17 373.81L826.65 370.43L825.93 369.44L826.74 366.25L827.84 365.73L828.15 362.05L827.14 361.35L826.87 358.07L827.75 357.21L826.84 353.63L825.66 353.29L824.34 350.28L824.89 349.19L822.87 346.1L821.65 346.16L819.42 343.74L819.59 342.53L816.67 340.26L815.54 340.72L812.65 339.15L812.41 337.95L808.91 336.75L807.99 337.55L804.75 337.01L804.13 335.95Z" fill="#1D1D1B"/>
<path d="M815.18 361.7C815.2 368.83 809.44 374.61 802.31 374.63C795.19 374.65 789.4 368.89 789.38 361.76C789.36 354.64 795.12 348.85 802.24 348.83C809.37 348.81 815.16 354.58 815.18 361.7Z" fill="#362A2B"/>
<path d="M802.26 344.67C792.84 344.69 785.21 352.33 785.23 361.76C785.24 371.18 792.9 378.81 802.32 378.8C811.74 378.79 819.37 371.14 819.35 361.71C819.33 352.28 811.68 344.66 802.26 344.67ZM802.31 376.95C793.91 376.96 787.09 370.16 787.07 361.76C787.06 353.36 793.86 346.53 802.26 346.52C810.66 346.5 817.48 353.3 817.5 361.7C817.51 370.11 810.71 376.93 802.31 376.95Z" fill="#DADADA"/>
<path d="M802.26 351.27C796.49 351.28 791.81 355.97 791.82 361.74C791.83 367.52 796.52 372.19 802.29 372.18C808.06 372.17 812.74 367.48 812.73 361.71C812.73 355.94 808.04 351.27 802.26 351.27ZM802.29 368.31C798.66 368.32 795.71 365.37 795.71 361.75C795.7 358.12 798.64 355.17 802.27 355.16C805.9 355.15 808.85 358.09 808.85 361.72C808.86 365.35 805.92 368.3 802.29 368.31Z" fill="#EDEDED"/>
<path d="M802.27 355.16C798.64 355.17 795.7 358.11 795.71 361.75C795.72 365.38 798.66 368.32 802.29 368.31C805.92 368.3 808.86 365.36 808.85 361.72C808.85 358.09 805.9 355.15 802.27 355.16ZM804.79 357.88C805.16 357.51 805.75 357.51 806.12 357.88C806.49 358.25 806.49 358.84 806.12 359.21C805.75 359.58 805.16 359.58 804.79 359.21C804.43 358.85 804.43 358.25 804.79 357.88ZM802.27 357.15C802.57 357.15 802.82 357.39 802.82 357.7C802.82 358 802.57 358.25 802.27 358.25C801.97 358.25 801.72 358.01 801.72 357.7C801.73 357.39 801.97 357.15 802.27 357.15ZM798.43 357.89C798.8 357.52 799.39 357.52 799.76 357.89C800.13 358.25 800.13 358.85 799.76 359.22C799.39 359.59 798.8 359.59 798.43 359.22C798.07 358.85 798.07 358.26 798.43 357.89ZM797.7 361.74C797.7 361.43 797.94 361.19 798.24 361.19C798.54 361.19 798.79 361.43 798.79 361.74C798.79 362.04 798.55 362.29 798.24 362.29C797.94 362.29 797.7 362.04 797.7 361.74ZM799.77 365.58C799.4 365.95 798.81 365.95 798.44 365.58C798.07 365.22 798.07 364.62 798.44 364.25C798.81 363.88 799.4 363.88 799.77 364.25C800.14 364.62 800.14 365.21 799.77 365.58ZM802.29 366.32C801.99 366.32 801.74 366.08 801.74 365.77C801.74 365.47 801.99 365.22 802.29 365.22C802.59 365.22 802.84 365.46 802.84 365.77C802.84 366.08 802.59 366.32 802.29 366.32ZM802.29 364.23C800.91 364.23 799.79 363.12 799.79 361.73C799.79 360.35 800.9 359.23 802.28 359.23C803.66 359.23 804.78 360.34 804.78 361.72C804.78 363.11 803.67 364.23 802.29 364.23ZM806.13 365.57C805.76 365.94 805.17 365.93 804.8 365.57C804.43 365.21 804.43 364.61 804.8 364.24C805.17 363.87 805.76 363.87 806.13 364.24C806.5 364.61 806.5 365.2 806.13 365.57ZM806.32 362.27C806.02 362.27 805.77 362.03 805.77 361.72C805.77 361.42 806.01 361.17 806.32 361.17C806.62 361.17 806.87 361.41 806.87 361.72C806.87 362.03 806.63 362.27 806.32 362.27Z" fill="#C6C6C6"/>
<path d="M802.26 346.52C793.86 346.53 787.06 353.35 787.07 361.76C787.08 370.16 793.9 376.96 802.31 376.95C810.71 376.94 817.52 370.11 817.5 361.71C817.48 353.3 810.66 346.5 802.26 346.52ZM812.68 354.05C813.48 353.59 814.46 353.76 814.86 354.45C815.26 355.14 814.93 356.07 814.13 356.54C813.33 357 812.35 356.83 811.95 356.14C811.55 355.45 811.88 354.51 812.68 354.05ZM812.74 361.72C812.75 367.49 808.07 372.18 802.3 372.19C796.52 372.2 791.84 367.53 791.83 361.75C791.82 355.98 796.49 351.29 802.27 351.28C808.04 351.27 812.73 355.94 812.74 361.72ZM807.44 349.88C807.9 349.07 808.84 348.74 809.52 349.14C810.21 349.53 810.39 350.51 809.93 351.31C809.46 352.12 808.53 352.44 807.85 352.05C807.16 351.66 806.98 350.69 807.44 349.88ZM802.26 347.2C803.05 347.2 803.7 347.95 803.7 348.88C803.7 349.81 803.06 350.56 802.27 350.56C801.47 350.56 800.83 349.81 800.83 348.88C800.82 347.96 801.47 347.2 802.26 347.2ZM795 349.16C795.69 348.76 796.62 349.09 797.09 349.89C797.56 350.69 797.37 351.67 796.69 352.07C796 352.47 795.07 352.14 794.6 351.34C794.13 350.53 794.31 349.56 795 349.16ZM789.69 354.49C790.09 353.8 791.06 353.62 791.86 354.08C792.66 354.54 793 355.48 792.6 356.17C792.2 356.86 791.23 357.04 790.42 356.58C789.62 356.11 789.29 355.18 789.69 354.49ZM787.75 361.75C787.75 360.95 788.5 360.31 789.43 360.31C790.36 360.31 791.11 360.95 791.11 361.74C791.11 362.54 790.36 363.18 789.43 363.18C788.51 363.19 787.75 362.55 787.75 361.75ZM791.89 369.42C791.09 369.88 790.11 369.7 789.71 369.02C789.31 368.33 789.64 367.4 790.45 366.93C791.25 366.47 792.22 366.64 792.62 367.33C793.02 368.02 792.69 368.95 791.89 369.42ZM797.12 373.59C796.66 374.39 795.73 374.72 795.03 374.33C794.34 373.93 794.16 372.96 794.62 372.15C795.08 371.35 796.02 371.01 796.7 371.41C797.4 371.81 797.59 372.78 797.12 373.59ZM802.31 376.26C801.51 376.26 800.87 375.51 800.87 374.58C800.87 373.65 801.51 372.9 802.3 372.9C803.09 372.9 803.74 373.65 803.74 374.58C803.74 375.51 803.1 376.26 802.31 376.26ZM809.57 374.3C808.88 374.7 807.95 374.37 807.48 373.57C807.01 372.77 807.19 371.79 807.88 371.4C808.57 371 809.5 371.33 809.97 372.13C810.43 372.93 810.25 373.9 809.57 374.3ZM814.88 368.98C814.48 369.67 813.51 369.85 812.71 369.39C811.9 368.93 811.57 367.99 811.97 367.31C812.37 366.62 813.34 366.44 814.14 366.9C814.94 367.36 815.27 368.29 814.88 368.98ZM815.13 363.15C814.2 363.15 813.45 362.51 813.45 361.72C813.45 360.92 814.2 360.28 815.13 360.28C816.06 360.28 816.81 360.92 816.81 361.71C816.81 362.5 816.06 363.15 815.13 363.15Z" fill="#C6C6C6"/>
<path d="M820.65 312.74C822.51 312.73 822.79 312.9 823.73 313.26L823.66 313.86C823.44 315.77 823.47 321.91 823.7 323.81L823.77 324.41C822.82 324.79 822.54 325 820.69 325.01C814.13 325.04 811.33 320.61 811.33 318.82C811.34 316.58 814.09 312.77 820.65 312.74Z" fill="#2E8A9D"/>
<path d="M823.66 313.86L823.73 313.26C824.24 313.45 824.63 313.7 824.88 314C825.8 315.12 825.19 316.94 825.2 318.85C825.21 320.78 825.86 322.53 824.92 323.66C824.67 323.96 824.28 324.21 823.78 324.41L823.71 323.81C823.47 321.9 823.45 315.77 823.66 313.86Z" fill="#614F49"/>
<path d="M824.84 313.99C827.08 313.86 827.09 323.65 824.88 323.67C824.66 321.85 824.63 315.81 824.84 313.99Z" fill="white"/>
<path d="M580.67 235.32C572.59 243.06 564.52 251.82 556.44 261.47C564.52 278.74 572.59 296.9 580.67 316.08C443.74 219.18 150.68 416.65 13.74 319.74C21.82 312 29.89 303.24 37.97 293.59C29.89 276.32 21.82 258.16 13.74 238.98C150.68 335.89 443.74 138.42 580.67 235.32Z" fill="#3F4444"/>
<path d="M74.9499 288.33L74.0599 290.71L67.3899 309.38L66.5699 311.79L61.9499 310.14L62.8399 307.76L65.6399 299.92L62.1399 298.67L59.3399 306.51L58.5199 308.92L53.8999 307.27L54.7899 304.89L61.4599 286.22L62.2799 283.81L66.8999 285.46L66.0099 287.84L63.5599 294.7L67.0599 295.95L69.5099 289.09L70.3299 286.68L74.9499 288.33Z" fill="white"/>
<path d="M72.6498 312.33C71.5598 310.79 71.2798 308.79 72.4098 303.91L73.8698 297.6C75.0098 292.68 76.1298 291.01 77.7898 290.1C79.0998 289.4 80.6498 289.26 82.5798 289.7C84.5098 290.15 85.8398 290.95 86.7098 292.16C87.7998 293.7 88.1098 295.7 86.9798 300.62L85.5198 306.93C84.3898 311.82 83.2298 313.48 81.5798 314.39C80.2698 315.09 78.7198 315.23 76.7898 314.79C74.8598 314.35 73.5198 313.53 72.6498 312.33ZM80.5498 306.79L82.4598 298.54C82.9998 296.2 83.4398 294.3 81.6098 293.87C79.8198 293.46 79.3798 295.36 78.8398 297.7L76.9298 305.95C76.3898 308.29 75.9498 310.19 77.7398 310.61C79.5698 311.04 80.0098 309.13 80.5498 306.79Z" fill="white"/>
<path d="M87.53 314.13L89.84 294.44L90.1 291.91L96.51 292.66L97.39 304.94C97.46 305.9 97.52 307.27 97.51 308.22L97.65 308.24C97.87 307.32 98.2 305.99 98.49 305.08L102.19 293.34L108.56 294.09L108.23 296.61L105.92 316.3L105.66 318.83L101.4 318.33L101.73 315.81L103.04 304.6C103.15 303.63 103.35 302.28 103.53 301.36L103.39 301.34C103.14 302.26 102.77 303.55 102.48 304.46L98.21 317.95L94.63 317.53L93.6 303.41C93.53 302.45 93.47 301.12 93.44 300.16L93.3 300.14C93.23 301.08 93.14 302.44 93.03 303.4L91.72 314.61L91.46 317.14L87.2 316.64L87.53 314.13Z" fill="white"/>
<path d="M114.81 308.19L114.57 315.05L120.88 315.27L120.74 319.31L109.57 318.93L109.69 316.39L110.37 296.58L110.42 294.04L121.45 294.42L121.31 298.46L115.15 298.25L114.95 304.06L119.92 304.23L119.78 308.37L114.81 308.19Z" fill="white"/>
<path d="M133.93 298.21L134.45 316.53L134.56 319.07L129.69 319.21L129.65 316.67L129.13 298.35L125.02 298.47L124.91 294.43L137.96 294.06L138.07 298.1L133.93 298.21Z" fill="white"/>
<path d="M141.9 317.7C140.41 316.55 139.55 314.72 139.2 309.72L138.74 303.26C138.38 298.22 138.97 296.29 140.28 294.94C141.33 293.89 142.77 293.3 144.74 293.16C146.72 293.02 148.23 293.4 149.41 294.3C150.9 295.45 151.79 297.27 152.15 302.31L152.61 308.77C152.97 313.77 152.35 315.7 151.03 317.06C149.98 318.11 148.54 318.7 146.57 318.84C144.6 318.97 143.09 318.59 141.9 317.7ZM147.83 310.08L147.23 301.63C147.06 299.23 146.92 297.29 145.05 297.42C143.22 297.55 143.35 299.5 143.53 301.89L144.13 310.34C144.3 312.74 144.44 314.68 146.28 314.55C148.14 314.42 148 312.48 147.83 310.08Z" fill="white"/>
<path d="M163.11 316.89L158.31 317.46L159.59 292.23L166.14 291.45L173.31 315.68L168.55 316.25L167.25 311.42L163.2 311.9L163.11 316.89ZM163.32 307.71L166.15 307.38L164.5 301.12C164.22 299.96 163.81 298.33 163.62 297.4L163.44 297.42C163.48 298.36 163.5 300.04 163.46 301.24L163.32 307.71Z" fill="white"/>
<path d="M177.95 312.43L174.91 292.85L174.48 290.34L180.68 289.38C186.28 288.51 188.18 291.6 188.82 295.77L188.83 295.84C189.47 299.97 188.59 303.49 183 304.36L181.61 304.58L182.72 311.71L183.14 314.22L178.29 314.97L177.95 312.43ZM181.97 300.49C184.07 300.16 184.3 298.58 184 296.62L183.97 296.45C183.67 294.49 182.97 293.04 180.86 293.37L179.9 293.52L181.01 300.64L181.97 300.49Z" fill="white"/>
<path d="M195.41 301.13L196.6 307.89L202.81 306.79L203.51 310.77L192.5 312.71L192.09 310.2L188.64 290.68L188.16 288.18L199.03 286.26L199.73 290.24L193.66 291.31L194.67 297.04L199.57 296.17L200.29 300.25L195.41 301.13Z" fill="white"/>
<path d="M207.82 299.65L209.27 307.07L209.79 309.56L204.98 310.5L204.53 308L200.74 288.55L200.22 286.06L206.45 284.84C211.93 283.77 213.96 286.82 214.75 290.85L214.76 290.92C215.25 293.42 214.99 295.7 213.36 297.33L218.57 307.85L213.55 308.83L209.14 299.4L207.82 299.65ZM207.08 295.85L207.96 295.68C210.15 295.25 210.28 293.63 209.92 291.78L209.91 291.71C209.55 289.86 208.79 288.41 206.7 288.82L205.74 289.01L207.08 295.85Z" fill="white"/>
<path d="M222.27 296.06L223.96 304.1L224.52 306.58L219.72 307.59L219.23 305.09L215.16 285.7L214.6 283.22L225.26 280.98L226.09 284.93L220.2 286.17L221.42 292L226.15 291.01L227 295.07L222.27 296.06Z" fill="white"/>
<path d="M233.74 293.44L235.22 300.14L241.38 298.78L242.25 302.73L231.33 305.14L230.82 302.65L226.54 283.3L225.96 280.82L236.74 278.44L237.61 282.39L231.59 283.72L232.84 289.4L237.7 288.33L238.59 292.38L233.74 293.44Z" fill="white"/>
<path d="M245.42 300.94C243.77 300.03 242.63 298.29 241.52 293.47L240.07 287.16C238.95 282.31 239.22 280.24 240.31 278.71C241.01 277.73 242.23 276.77 244.48 276.25C246.48 275.79 247.97 275.98 249.24 276.66C250.97 277.58 252.08 279.33 253.08 283.68L253.1 283.78L248.32 284.88L248.3 284.78C247.64 281.89 247.21 280.03 245.41 280.44C243.62 280.85 244.05 282.72 244.6 285.1L246.5 293.35C247.05 295.73 247.48 297.59 249.31 297.17C251.17 296.74 250.73 294.84 249.96 291.48L249.94 291.38L254.68 290.29L254.7 290.39C255.85 295.38 255.49 297.36 254.4 298.89C253.56 300.05 252.27 300.88 250.27 301.34C247.99 301.84 246.47 301.51 245.42 300.94Z" fill="white"/>
<path d="M260.66 277.01L264.89 294.84L265.51 297.31L260.77 298.43L260.22 295.95L256 278.12L252 279.07L251.07 275.14L263.77 272.12L264.7 276.05L260.66 277.01Z" fill="white"/>
<path d="M274.02 295.27L273.46 292.79L268.79 273.52L268.16 271.06L272.93 269.9L273.49 272.38L277.81 290.19L283.31 288.85L284.26 292.78L274.02 295.27Z" fill="white"/>
<path d="M284.21 267.16L284.78 269.64L289.48 288.9L290.12 291.36L285.36 292.52L284.79 290.04L280.09 270.78L279.45 268.32L284.21 267.16Z" fill="white"/>
<path d="M292.1 288.25L287.4 268.99L286.76 266.53L291.59 265.35L297.69 274.22C298.44 275.33 299.02 276.19 299.48 276.98L299.58 276.95C299.33 276.08 298.94 274.78 298.71 273.83L296.96 266.66L296.32 264.2L300.91 263.08L301.48 265.56L306.18 284.82L306.82 287.28L302.58 288.31L295.55 278.19C294.75 277.02 294.22 276.22 293.76 275.43L293.66 275.46C293.87 276.34 294.3 277.63 294.53 278.58L296.62 287.14L297.26 289.6L292.67 290.72L292.1 288.25Z" fill="white"/>
<path d="M310.69 285.26C309.03 284.37 307.87 282.65 306.71 277.84L305.19 271.54C304.02 266.7 304.26 264.63 305.33 263.08C306.02 262.09 307.23 261.12 309.47 260.57C311.47 260.09 312.96 260.26 314.23 260.92C315.97 261.83 317.09 263.56 318.14 267.9L318.16 268L313.39 269.15L313.37 269.05C312.67 266.17 312.22 264.31 310.44 264.74C308.65 265.17 309.1 267.03 309.68 269.4L311.67 277.63C312.24 280 312.69 281.86 314.52 281.42C316.38 280.97 315.92 279.07 315.11 275.72L315.09 275.62L319.82 274.48L319.84 274.58C321.04 279.56 320.71 281.54 319.63 283.09C318.8 284.26 317.52 285.1 315.52 285.59C313.28 286.14 311.76 285.82 310.69 285.26Z" fill="white"/>
<path d="M325.18 281.77C323.52 280.87 322.39 279.21 321.23 274.33L319.74 268.03C318.58 263.12 318.85 261.12 319.93 259.57C320.79 258.36 322.12 257.55 324.05 257.09C325.98 256.63 327.53 256.77 328.84 257.46C330.5 258.36 331.67 260.01 332.83 264.93L334.32 271.23C335.47 276.11 335.17 278.12 334.09 279.66C333.23 280.87 331.9 281.68 329.97 282.14C328.04 282.6 326.49 282.46 325.18 281.77ZM329.81 273.3L327.86 265.06C327.31 262.72 326.86 260.82 325.03 261.25C323.24 261.67 323.69 263.57 324.24 265.91L326.19 274.15C326.74 276.49 327.19 278.39 328.98 277.96C330.81 277.54 330.36 275.64 329.81 273.3Z" fill="white"/>
<path d="M338.47 279.71L337.94 277.22L333.52 257.9L332.92 255.43L337.7 254.34L338.23 256.83L342.32 274.69L347.84 273.43L348.74 277.37L338.47 279.71Z" fill="white"/>
<path d="M349.3 274.62L345.07 255.26L344.49 252.78L349.35 251.72L355.24 260.74C355.97 261.86 356.53 262.74 356.96 263.54L357.07 263.52C356.84 262.64 356.48 261.33 356.27 260.38L354.69 253.17L354.11 250.69L358.73 249.68L359.24 252.17L363.47 271.53L364.05 274.01L359.79 274.94L353 264.66C352.22 263.47 351.71 262.66 351.28 261.86L351.17 261.88C351.36 262.76 351.76 264.07 351.97 265.02L353.85 273.63L354.43 276.11L349.81 277.12L349.3 274.62Z" fill="white"/>
<path d="M368.16 265.72C368.95 267.98 369.97 268.83 371.32 268.56C372.52 268.32 373.11 267.41 372.85 266.12C372.58 264.79 371.47 263.84 369.45 262.8L366.86 261.44C363.77 259.83 362.32 257.78 361.82 255.29C361.07 251.43 363.27 248.31 367.12 247.53C371.01 246.74 373.69 248.72 375.01 252.86L370.56 254.16C369.99 252.46 369.21 251.49 367.97 251.74C366.87 251.96 366.41 252.95 366.66 254.18C366.95 255.61 368.01 256.29 369.91 257.29L372.5 258.65C375.67 260.28 377.23 262.38 377.76 264.97C378.57 268.93 376.35 271.98 372.21 272.78C368.14 273.57 365.14 271.52 363.75 267.04L368.16 265.72Z" fill="white"/>
<path d="M388.81 243.79L389.24 246.3L392.85 265.78L393.35 268.27L388.53 269.16L388.1 266.65L386.58 258.47L382.93 259.15L384.45 267.33L384.95 269.82L380.13 270.72L379.7 268.21L376.09 248.73L375.59 246.24L380.41 245.35L380.84 247.86L382.17 255.02L385.82 254.34L384.49 247.18L383.99 244.69L388.81 243.79Z" fill="white"/>
<path d="M396.53 242.49L396.92 245L400.21 264.54L400.67 267.04L395.83 267.86L395.44 265.35L392.15 245.81L391.69 243.31L396.53 242.49Z" fill="white"/>
<path d="M406.46 255.9L407.58 263.38L407.99 265.89L403.14 266.61L402.8 264.09L399.87 244.48L399.46 241.97L405.74 241.03C411.27 240.2 413.16 243.34 413.76 247.4L413.77 247.47C414.15 249.99 413.79 252.26 412.09 253.81L416.83 264.55L411.77 265.31L407.78 255.69L406.46 255.9ZM405.89 252.08L406.78 251.95C408.99 251.62 409.19 250 408.91 248.14L408.9 248.07C408.62 246.21 407.93 244.73 405.82 245.04L404.86 245.18L405.89 252.08Z" fill="white"/>
<path d="M421.44 253.03L422.27 259.84L428.53 259.08L429.02 263.09L417.92 264.44L417.65 261.91L415.24 242.24L414.89 239.72L425.84 238.38L426.33 242.39L420.21 243.14L420.92 248.91L425.86 248.31L426.36 252.42L421.44 253.03Z" fill="white"/>
<path d="M437.25 254.99C437.77 257.32 438.68 258.3 440.04 258.19C441.26 258.09 441.96 257.27 441.85 255.95C441.74 254.6 440.75 253.52 438.87 252.24L436.45 250.58C433.58 248.61 432.38 246.4 432.18 243.87C431.9 239.94 434.45 237.12 438.37 236.8C442.32 236.48 444.75 238.76 445.57 243.03L441 243.79C440.64 242.04 439.98 240.97 438.72 241.08C437.61 241.17 437.03 242.09 437.13 243.34C437.25 244.8 438.22 245.59 439.98 246.81L442.39 248.47C445.34 250.47 446.64 252.74 446.86 255.38C447.19 259.41 444.62 262.17 440.42 262.47C436.28 262.77 433.56 260.37 432.71 255.76L437.25 254.99Z" fill="white"/>
<path d="M451.84 261.28L447.01 261.48L450.25 236.42L456.84 236.15L462.1 260.87L457.31 261.06L456.39 256.15L452.32 256.32L451.84 261.28ZM452.77 252.14L455.62 252.02L454.46 245.65C454.27 244.47 453.98 242.81 453.87 241.87L453.69 241.88C453.66 242.82 453.54 244.5 453.41 245.69L452.77 252.14Z" fill="white"/>
<path d="M476.21 236.08L476.15 238.62L476 254.68C475.96 259 473.38 261.38 469.27 261.34C465.16 261.3 462.66 258.87 462.7 254.55L462.85 238.49L462.84 235.95L467.71 236L467.65 238.54L467.51 254.08C467.49 256 467.95 257.05 469.32 257.06C470.69 257.07 471.2 256.03 471.22 254.12L471.36 238.58L471.35 236.04L476.21 236.08Z" fill="white"/>
<path d="M481.73 254.04C481.89 256.42 482.65 257.52 484.02 257.62C485.24 257.7 486.05 256.99 486.14 255.67C486.23 254.32 485.41 253.11 483.74 251.56L481.6 249.56C479.05 247.19 478.2 244.82 478.37 242.29C478.67 238.37 481.62 235.95 485.54 236.21C489.5 236.48 491.56 239.1 491.74 243.44L487.11 243.51C487.01 241.72 486.51 240.57 485.26 240.49C484.14 240.41 483.44 241.24 483.35 242.49C483.25 243.95 484.09 244.88 485.65 246.35L487.79 248.35C490.41 250.76 491.36 253.2 491.18 255.84C490.91 259.87 487.97 262.22 483.76 261.9C479.63 261.58 477.28 258.81 477.13 254.12L481.73 254.04Z" fill="white"/>
<path d="M495.08 262.52L490.29 261.87L497.86 237.76L504.4 238.65L505.26 263.91L500.51 263.26L500.46 258.26L496.42 257.71L495.08 262.52ZM497.59 253.69L500.41 254.07L500.38 247.6C500.4 246.41 500.41 244.72 500.46 243.78L500.28 243.76C500.08 244.68 499.68 246.32 499.34 247.47L497.59 253.69Z" fill="white"/>
<path d="M515.06 252.59L521.68 254.05L518.84 266.91L516.73 266.44L516.19 264.39L516.12 264.37C514.85 265.62 513.45 266.1 511.51 265.67C509.78 265.29 508.57 264.42 507.84 263.4C506.74 261.87 506.46 259.81 507.52 254.98L508.92 248.65C510 243.79 511.12 242.04 512.77 241.12C514.11 240.38 515.69 240.27 517.56 240.68C519.57 241.12 520.9 241.95 521.75 243.1C522.8 244.54 523.22 246.46 522.23 250.95L522.19 251.12L517.37 250.05L517.41 249.88C518.01 247.16 518.43 245.25 516.64 244.86C514.85 244.46 514.42 246.37 513.91 248.71L512.08 256.98C511.51 259.56 511.14 261.23 513.01 261.64C515.12 262.11 515.6 259.93 516.18 257.31L516.22 257.11L514.18 256.66L515.06 252.59Z" fill="white"/>
<path d="M528.41 258.48L526.34 265.02L532.36 266.92L531.14 270.77L520.48 267.4L521.28 264.99L527.26 246.1L527.99 243.66L538.51 246.99L537.29 250.84L531.41 248.98L529.65 254.53L534.39 256.03L533.14 259.98L528.41 258.48Z" fill="white"/>
</svg>
