<?xml version="1.0" encoding="utf-8"?>
<!-- Generator: Adobe Illustrator 27.2.0, SVG Export Plug-In . SVG Version: 6.00 Build 0)  -->
<svg version="1.1" id="Layer_1" xmlns="http://www.w3.org/2000/svg" xmlns:xlink="http://www.w3.org/1999/xlink" x="0px" y="0px"
	 viewBox="0 0 841.89 595.28" style="enable-background:new 0 0 841.89 595.28;" xml:space="preserve">
<style type="text/css">
	.st0{fill:none;stroke:#3F4444;stroke-miterlimit:10;}
	.st1{fill:#2E8A9D;}
	.st2{fill:#1D1D1B;}
	.st3{fill:#72B0BD;}
	.st4{fill:#3C3C3B;}
	.st5{fill:#EDBB86;}
	.st6{fill:#FFFFFF;}
	.st7{fill:#FFC990;}
	.st8{fill:#131313;}
	.st9{fill:#EED484;}
	.st10{fill:#D3B560;}
	.st11{opacity:0.1;fill:#050504;}
	.st12{fill:#EDEDED;}
	.st13{fill:#362A2B;}
	.st14{fill:#DADADA;}
	.st15{fill:#C6C6C6;}
	.st16{fill:#614F49;}
	.st17{fill:#3F4444;}
</style>
<g>
	<polyline class="st0" points="189.43,310.92 286.34,262.59 178.06,295.49 	"/>
	<g>
		<path class="st1" d="M170.08,284.2h-31.44v31.64h47.66l-4.41-21.97C180.75,288.24,175.81,284.2,170.08,284.2z"/>
		<path class="st2" d="M142.11,360.11H76.35c-4.71,0-8.53-3.82-8.53-8.53v-4.62h74.3V360.11z"/>
		<path class="st3" d="M92.44,305.37v49.81H26.28c-2.8,0-5.07-2.28-5.07-5.08v-34.08c0-5.47,4.12-9.97,9.42-10.58
			c0.41-0.05,0.83-0.07,1.24-0.07H92.44z"/>
		
			<rect x="92.19" y="278.34" transform="matrix(0.8999 -0.4361 0.4361 0.8999 -111.8841 70.6758)" class="st4" width="11.69" height="1.49"/>
		<path class="st5" d="M97.97,275.53c0.03-0.33-0.08-0.71,0.12-0.98c0.18-0.24,0.51-0.27,0.81-0.28c1.03-0.05,2.06-0.1,3.09-0.14
			c0.29-0.01,0.63-0.01,0.81,0.22c0.16,0.2,0.12,0.49,0.08,0.74c-0.05,0.31-0.12,0.64-0.35,0.86c-0.2,0.18-0.47,0.25-0.74,0.3
			c-1.06,0.22-2.12,0.45-3.19,0.57c-0.2,0.02-0.42,0.04-0.58-0.09c-0.17-0.13-0.21-0.37-0.18-0.58
			C97.87,275.94,97.95,275.74,97.97,275.53z"/>
		<path class="st4" d="M104.2,278.15c-0.09,0-0.17-0.01-0.26-0.02l-21.67-3.93c-0.78-0.14-1.31-0.89-1.16-1.68
			c0.14-0.79,0.89-1.3,1.68-1.16l21.67,3.93c0.78,0.14,1.31,0.89,1.16,1.68C105.5,277.66,104.89,278.15,104.2,278.15z"/>
		<path class="st4" d="M92.5,290.73L88.35,290l1.9-10.93c0.11-0.61,0.69-1.02,1.3-0.92l1.93,0.34c0.61,0.11,1.02,0.69,0.92,1.3
			L92.5,290.73z"/>
		<path class="st3" d="M92.47,355.17l-1.87-0.26c-8.55-1.18-14.53-9.07-13.36-17.62l6.9-50.08c0.34-1.98,2.23-3.3,4.21-2.96
			l6.22,1.08c1.98,0.34,3.3,2.23,2.96,4.21L92.47,355.17z"/>
		<rect x="118.58" y="344.69" class="st2" width="48.52" height="5.96"/>
		<path class="st3" d="M197.42,325.55v29.62h-28.14c-1.79,0-3.24-1.45-3.24-3.24v-0.1c0-3.51-2.84-6.35-6.35-6.35h-34.36
			c-3.51,0-6.35,2.84-6.35,6.35v0.1c0,1.79-1.45,3.24-3.24,3.24H90.35v-14.93c0-2,1.62-3.62,3.62-3.62h20.04l2.46-19.3l1.29-10.1
			c0.28-2.19,2.14-3.84,4.36-3.84h53.12c9.33,0,17.32,5.77,20.6,13.94C196.85,319.86,197.42,322.64,197.42,325.55z"/>
		<path class="st2" d="M138.9,274.15c-2.13,0.09-4.08,0.53-4.26,2.66l-1.85,23.73c-0.14,1.61-1.48,2.85-3.1,2.85h-10.17
			c-1.2,0-2.17,0.97-2.17,2.17v4.38h16.56c2.61,0,4.73-2.12,4.73-4.73v-1.82l1.69-27.79c0.05-0.81-0.61-1.48-1.41-1.45L138.9,274.15
			z"/>
		<path class="st4" d="M197.42,325.55v11.11h-83.48v-0.05h0.08l2.46-19.3h79.36C196.85,319.86,197.42,322.64,197.42,325.55z"/>
		<path class="st6" d="M163.93,293.44h-17.56c-0.41,0-0.74-0.33-0.74-0.74v-3.37c0-0.41,0.33-0.74,0.74-0.74h17.56
			c0.41,0,0.74,0.33,0.74,0.74v3.37C164.67,293.11,164.34,293.44,163.93,293.44z"/>
		<path class="st4" d="M155.15,296.13c0,0.36-0.29,0.65-0.65,0.65h-8.23c-0.36,0-0.65-0.29-0.65-0.65l0,0
			c0-0.36,0.29-0.65,0.65-0.65h8.23C154.86,295.49,155.15,295.78,155.15,296.13L155.15,296.13z"/>
		<path class="st4" d="M155.15,298.22c0,0.36-0.29,0.65-0.65,0.65h-8.23c-0.36,0-0.65-0.29-0.65-0.65l0,0
			c0-0.36,0.29-0.65,0.65-0.65h8.23C154.86,297.57,155.15,297.86,155.15,298.22L155.15,298.22z"/>
		<path class="st4" d="M155.15,300.3c0,0.36-0.29,0.65-0.65,0.65h-8.23c-0.36,0-0.65-0.29-0.65-0.65l0,0c0-0.36,0.29-0.65,0.65-0.65
			h8.23C154.86,299.66,155.15,299.95,155.15,300.3L155.15,300.3z"/>
		<path class="st7" d="M102.64,276.48c-0.59,0.63-0.74,0.68-1.5,0.67c-1.3-0.01-1.71-0.05-3.08-0.13c0.39,0.7,0.37,1.39,1,1.88
			c0.65,0.51,1.48,0.72,2.28,0.91c0.9,0.22,1.82,0.45,2.74,0.41c1.07-0.05,2.08-0.44,3.08-0.82c0.18-0.07,0.37-0.15,0.48-0.3
			c0.12-0.17,0.12-0.4,0.09-0.61c-0.14-1.14-0.85-2.13-1.66-2.96c-0.46-0.47-0.97-0.92-1.6-1.11c-1.45-0.45-3.19,0.28-4.67,0
			c-0.27-0.05-0.57-0.14-0.79,0.01c-0.21,0.14-0.26,0.43-0.17,0.66c0.09,0.23,0.3,0.4,0.52,0.5c0.47,0.23,1.02,0.22,1.54,0.27
			C101.43,275.93,102.29,276.09,102.64,276.48z"/>
		<g>
			<polygon class="st7" points="122.31,264.17 129.4,262.86 127.9,256.01 121.6,256.49 			"/>
			<g>
				<path class="st7" d="M118.14,261.83c0.37,0.49,0.9,0.82,1.58,0.76l1.48-0.15c0.48-0.09,1.01-0.31,1.54-0.66c0.01,0,0.01,0,0,0
					c1.42-0.95,2.74-2.79,2.51-5.01c0.03,0,0.05,0,0.08-0.01c0.01,0,0.02,0,0.02,0c1.09-0.12,2.89,0.83,2.93-0.24
					c0.04-1.19,1.21-3,1.24-4.56c-0.66-6.9-4.91-6.23-7.48-6.07c-2.06,0.22-3.98,1.34-4.93,3.53c-0.28,0.65-0.48,1.39-0.57,2.23
					c-0.05,0.44-0.06,0.89-0.05,1.38c0.19,0.44,0.39,0.8,0.39,0.8l-0.14,0.37l-0.61,1.66c-0.14,0.43,0.15,0.88,0.6,0.95l0.67,0.14
					c0.04,0.46,0.04,3.06,0.04,3.06C117.51,260.61,117.74,261.31,118.14,261.83z"/>
				<path class="st8" d="M128.24,258.12c-4.6,1.31-2.32-4.19-2.32-4.19s-0.94,1.75-1.29,2.24c-0.76,0.04-0.76,0.04-1.45,0.03
					c-0.65-5.86,0.33-8.57-6.06-6.79c0.74-2.62,3.5-4.8,5.57-4.4c3.4,0.66,6.6,1.54,7.12,4.97
					C130.11,251.98,130.38,253.08,128.24,258.12z"/>
				<path class="st7" d="M126.74,254.33c0.07,1.08-0.77,2.39-1.48,2.43c-0.71,0.04-0.68-0.84-0.76-1.92c-0.05-0.72-0.29-1.72,0.47-2
					C125.64,252.6,126.65,252.74,126.74,254.33z"/>
			</g>
			<path class="st9" d="M116.7,250.7l5.26,0.53c0.01,0,0.01,0,0.01,0l5.17,0.52l0.17,0.02l0.22,0.02l2.48,0.25l-0.09-2.59
				c-0.16-2-1.9-3.94-3.87-4.33l-3.16-0.63c-2.78-0.55-5.23,1.49-5.84,4.25c-0.02,0.08-0.03,0.16-0.05,0.25l-0.12,0.65L116.7,250.7z
				"/>
			<path class="st10" d="M111.37,250.19c0.58,0.95,1.52,1.32,2.84,1.44c0.83,0.08,1.81,0.04,2.94-0.01c1.2-0.06,4.65-0.37,4.82-0.39
				c-1.58-0.77-3.12-1.34-5.08-1.6c0,0-1.19,0.08-2.47,0.19C112.96,249.94,111.37,250.1,111.37,250.19z"/>
			<path class="st11" d="M116.89,253.82l-0.14,0.38c3.65-0.29,7.2-1.57,10.78-2.41l-0.22-0.02l-0.14,0.03
				c-0.01-0.01-0.02-0.03-0.02-0.04l-5.17-0.52c0,0,0,0-0.01,0c-0.17,0.02-3.62,0.34-4.82,0.39c-0.21,0.01-0.4,0.02-0.6,0.02
				c-0.05,0.44-0.06,0.89-0.05,1.38C116.68,253.46,116.89,253.82,116.89,253.82z"/>
			<path class="st11" d="M118.14,261.83c0.37,0.49,0.9,0.82,1.58,0.76l1.48-0.15c0.48-0.09,1.01-0.31,1.54-0.66c0.01,0,0.01,0,0,0
				c0.38-0.63,0.56-1.37,0.62-2.1c0.06-0.76,0-1.53-0.06-2.29c-0.02,0.68-0.28,1.33-0.67,1.89c-0.38,0.56-0.89,1.02-1.43,1.43
				c-0.54,0.41-1.13,0.76-1.77,0.96C119.02,261.79,118.58,261.86,118.14,261.83z"/>
		</g>
		<polygon class="st10" points="132.88,301.09 115.66,296.96 119.74,294.2 120.26,292.44 133.48,294.56 133.17,297.91 
			132.91,300.68 		"/>
		<g>
			<path class="st4" d="M112.36,335.64c0.03,0.08,0.02,0.17-0.03,0.25c-0.04,0.08-0.11,0.13-0.2,0.16l-1.08,0.29
				c-0.31,0.09-0.64,0.13-0.96,0.14l-2.64,0.07c-0.07,0-0.14,0.01-0.2,0.01l-5.99,0.45c-0.75,0.06-1.52,0.03-2.26-0.08
				c-1.32-0.2-2.55-0.48-3.53-0.96c-0.14-0.07-0.22-0.23-0.19-0.38l0.13-0.7l16.55-0.58L112.36,335.64z"/>
			<path class="st4" d="M111.06,329.58c-2.48,1.83-4.15,0.63-5.28-0.17c0.54-1.1,0.85-2.89-0.94-2.78c-0.25,0.01-0.15,0.6-0.45,1.44
				c-1.02,2.87-6.94,3.81-8.54,5.17c-0.48,0.37-0.68,1.6-0.35,1.71c1.83,0.63,2.63,0.69,4.09,0.84c1.21,0.13,2.43,0.08,3.63-0.13
				l2.64-0.64c0.35-0.06,0.71-0.11,1.07-0.14l5.08-0.37C112.24,333.14,111.97,331.12,111.06,329.58z"/>
			<path class="st12" d="M111.64,330.85c-0.88,0.36-0.87-0.39-2.14-0.45c0.16-0.22,0.46-0.27,0.63-0.94
				c0.12-0.49,0.24-0.97,0.47-1.1l0.07-0.03c0.09-0.03,0.19-0.03,0.27,0.02c0.08,0.05,0.14,0.13,0.16,0.22
				C111.21,329.11,111.41,330.1,111.64,330.85z"/>
		</g>
		<path class="st9" d="M130.15,303.72c-0.64,0.08-13.94,2.39-20.64,2.58c-0.19,0.03-5.28-0.6-5.71-3.26l-0.02-0.11
			c-0.33-2.04-0.56-4.76,1.25-5.43c0.82-0.3,2.27-0.44,3.1-0.57l10.91-1.74l8.37-1.33c1.36-0.35,6.17-1.79,6.25-0.42
			C133.87,297.29,133.83,303.27,130.15,303.72z"/>
		<path class="st9" d="M112.09,331.89c0.83-10.67,0.65-20.63-1.52-29.19c-0.14-2.89-1.36-5.55-4.25-5.4l-0.11,0.01
			c-2.88,0.15-5.1,2.61-4.95,5.49l1.48,26.9L112.09,331.89z"/>
		<path class="st9" d="M133.65,293.44l-13.91,0.76c-0.95-3.47-1.17-7.66-1.14-11.11c0.03-3.82,0.37-6.74,0.37-6.86
			c0-7.64,3.45-12.05,3.45-12.05l0.58-0.18l0.11-0.52c0.18-0.87,0.79-1.59,1.62-1.91l4.23-1.58l0.45,1.77
			C138.85,270.48,134.5,286.93,133.65,293.44z"/>
		<path class="st11" d="M131.2,270.69l-2.69,13.61c-0.63,3.17-2.53,5.94-5.26,7.67l-3.51,2.22c-0.95-3.47-1.17-7.66-1.14-11.11
			l0-3.45l5.68-9.81L131.2,270.69z"/>
		<path class="st9" d="M123.17,280.63l-16.29-3.54l-2.2,2.92l15.36,6.75c1.26,0.66,2.78,0.76,4.04,0.1c0.9-0.48,1.61-1.23,1.79-2.15
			l0.01-0.07C126.23,282.79,125.02,280.99,123.17,280.63z"/>
		<path class="st9" d="M130.75,272.45l-5.16,12.99l-7.24-1.27l5.31-14.09c0.59-1.83,2.73-4.65,5.08-3.8
			C128.73,266.28,132.57,267.71,130.75,272.45z"/>
		<path class="st11" d="M120.77,308.68l-6.75,27.94l-11.27-6.93c6.76-4.03,8.19-16.57,5.48-25.4c7.36-0.58,16.79-1.37,19.79-5.24
			c3.42-4.33,5.53-12.97,7.37-22.52v26.38c0,1.95-1.41,3.61-3.33,3.92L120.77,308.68z"/>
		
			<rect x="86.68" y="272.5" transform="matrix(0.7261 -0.6876 0.6876 0.7261 -166.7372 136.0734)" class="st4" width="1.49" height="9.64"/>
		
			<rect x="89.49" y="277.22" transform="matrix(0.1826 -0.9832 0.9832 0.1826 -197.4627 318.4259)" class="st4" width="6.57" height="1.49"/>
		<path class="st1" d="M80.46,305.37v10.04c0,3.08-2.5,5.58-5.58,5.58H36.21c-3.08,0-5.58-2.5-5.58-5.58v-9.97
			c0.41-0.05,0.83-0.07,1.24-0.07H80.46z"/>
		<g>
			<path class="st2" d="M39,332.32c0,0.51-0.42,0.93-0.93,0.93l0,0c-0.51,0-0.93-0.42-0.93-0.93v-7.62c0-0.51,0.42-0.93,0.93-0.93
				l0,0c0.51,0,0.93,0.42,0.93,0.93V332.32z"/>
			<path class="st2" d="M42.71,332.32c0,0.51-0.42,0.93-0.93,0.93l0,0c-0.51,0-0.93-0.42-0.93-0.93v-7.62
				c0-0.51,0.42-0.93,0.93-0.93l0,0c0.51,0,0.93,0.42,0.93,0.93V332.32z"/>
			<path class="st2" d="M46.43,332.32c0,0.51-0.42,0.93-0.93,0.93l0,0c-0.51,0-0.93-0.42-0.93-0.93v-7.62
				c0-0.51,0.42-0.93,0.93-0.93l0,0c0.51,0,0.93,0.42,0.93,0.93V332.32z"/>
			<path class="st2" d="M50.15,332.32c0,0.51-0.42,0.93-0.93,0.93l0,0c-0.51,0-0.93-0.42-0.93-0.93v-7.62
				c0-0.51,0.42-0.93,0.93-0.93l0,0c0.51,0,0.93,0.42,0.93,0.93V332.32z"/>
			<path class="st2" d="M53.87,332.32c0,0.51-0.42,0.93-0.93,0.93l0,0c-0.51,0-0.93-0.42-0.93-0.93v-7.62
				c0-0.51,0.42-0.93,0.93-0.93l0,0c0.51,0,0.93,0.42,0.93,0.93V332.32z"/>
			<path class="st2" d="M57.59,332.32c0,0.51-0.42,0.93-0.93,0.93l0,0c-0.51,0-0.93-0.42-0.93-0.93v-7.62
				c0-0.51,0.42-0.93,0.93-0.93l0,0c0.51,0,0.93,0.42,0.93,0.93V332.32z"/>
			<path class="st2" d="M61.31,332.32c0,0.51-0.42,0.93-0.93,0.93l0,0c-0.51,0-0.93-0.42-0.93-0.93v-7.62
				c0-0.51,0.42-0.93,0.93-0.93l0,0c0.51,0,0.93,0.42,0.93,0.93V332.32z"/>
			<path class="st2" d="M65.02,332.32c0,0.51-0.42,0.93-0.93,0.93l0,0c-0.51,0-0.93-0.42-0.93-0.93v-7.62
				c0-0.51,0.42-0.93,0.93-0.93l0,0c0.51,0,0.93,0.42,0.93,0.93V332.32z"/>
			<path class="st2" d="M68.74,332.32c0,0.51-0.42,0.93-0.93,0.93l0,0c-0.51,0-0.93-0.42-0.93-0.93v-7.62
				c0-0.51,0.42-0.93,0.93-0.93l0,0c0.51,0,0.93,0.42,0.93,0.93V332.32z"/>
			<path class="st2" d="M72.46,332.32c0,0.51-0.42,0.93-0.93,0.93l0,0c-0.51,0-0.93-0.42-0.93-0.93v-7.62
				c0-0.51,0.42-0.93,0.93-0.93l0,0c0.51,0,0.93,0.42,0.93,0.93V332.32z"/>
			<path class="st2" d="M76.18,332.32c0,0.51-0.42,0.93-0.93,0.93l0,0c-0.51,0-0.93-0.42-0.93-0.93v-7.62
				c0-0.51,0.42-0.93,0.93-0.93l0,0c0.51,0,0.93,0.42,0.93,0.93V332.32z"/>
		</g>
		<path class="st3" d="M75.78,316.15c0,0.55-0.44,0.99-0.99,0.99H36.3c-0.55,0-0.99-0.44-0.99-0.99l0,0c0-0.55,0.44-0.99,0.99-0.99
			h38.49C75.33,315.16,75.78,315.6,75.78,316.15L75.78,316.15z"/>
		<path class="st3" d="M75.78,309.93c0,0.55-0.44,0.99-0.99,0.99H36.3c-0.55,0-0.99-0.44-0.99-0.99l0,0c0-0.55,0.44-0.99,0.99-0.99
			h38.49C75.33,308.94,75.78,309.38,75.78,309.93L75.78,309.93z"/>
		<polygon class="st2" points="37.15,336.39 40.84,336.39 41.46,337.45 44.7,337.99 45.63,337.19 49.12,338.39 49.36,339.59 
			52.25,341.15 53.39,340.7 56.3,342.96 56.14,344.18 58.36,346.6 59.59,346.53 61.61,349.62 61.06,350.72 62.38,353.73 
			63.55,354.07 64.46,357.65 63.59,358.5 63.86,361.78 64.86,362.48 64.56,366.16 63.45,366.69 62.64,369.88 63.37,370.87 
			61.88,374.25 60.67,374.39 58.87,377.14 59.23,378.31 56.73,381.02 55.53,380.76 52.94,382.78 52.9,384.01 49.65,385.76 
			48.61,385.12 45.5,386.19 45.06,387.34 41.42,387.95 40.64,387 37.35,387 36.57,387.95 32.93,387.34 32.49,386.19 29.38,385.12 
			28.34,385.76 25.09,384.01 25.05,382.78 22.46,380.76 21.26,381.02 18.76,378.31 19.12,377.14 17.32,374.39 16.11,374.25 
			14.62,370.87 15.35,369.88 14.54,366.69 13.43,366.16 13.13,362.48 14.13,361.78 14.4,358.5 13.53,357.65 14.44,354.07 
			15.61,353.73 16.93,350.72 16.38,349.62 18.4,346.53 19.63,346.6 21.85,344.18 21.69,342.96 24.6,340.7 25.74,341.15 
			28.63,339.59 28.87,338.39 32.36,337.19 33.29,337.99 36.53,337.45 		"/>
		<g>
			<polygon class="st2" points="157.12,305.93 162.99,305.93 163.98,307.61 169.13,308.47 170.61,307.2 176.16,309.1 176.55,311.02 
				181.14,313.51 182.95,312.78 187.59,316.39 187.33,318.32 190.87,322.16 192.82,322.07 196.03,326.98 195.15,328.73 
				197.26,333.51 199.13,334.05 200.57,339.74 199.18,341.11 199.61,346.32 201.21,347.44 200.72,353.29 198.96,354.13 
				197.68,359.2 198.83,360.77 196.47,366.15 194.53,366.37 191.67,370.75 192.25,372.62 188.27,376.94 186.37,376.52 
				182.24,379.73 182.18,381.68 177.01,384.47 175.35,383.46 170.4,385.16 169.71,386.98 163.92,387.95 162.67,386.45 
				157.44,386.45 156.2,387.95 150.41,386.98 149.71,385.16 144.77,383.46 143.1,384.47 137.94,381.68 137.88,379.73 133.75,376.52 
				131.85,376.94 127.87,372.62 128.44,370.75 125.58,366.37 123.65,366.15 121.29,360.77 122.44,359.2 121.15,354.13 
				119.39,353.29 118.91,347.44 120.51,346.32 120.94,341.11 119.55,339.74 120.99,334.05 122.86,333.51 124.96,328.73 
				124.09,326.98 127.3,322.07 129.25,322.16 132.79,318.32 132.53,316.39 137.16,312.78 138.97,313.51 143.57,311.02 143.95,309.1 
				149.51,307.2 150.98,308.47 156.14,307.61 			"/>
			<g>
				<path class="st13" d="M137.85,346.88c-0.03,12.27,9.89,22.23,22.16,22.26c12.26,0.03,22.23-9.88,22.26-22.15
					c0.03-12.26-9.89-22.23-22.15-22.27C147.85,324.7,137.88,334.62,137.85,346.88z"/>
				<g>
					<path class="st14" d="M130.69,346.89c-0.03,16.23,13.1,29.4,29.32,29.42c16.22,0.02,29.39-13.11,29.42-29.33
						c0.03-16.22-13.1-29.39-29.33-29.42C143.88,317.54,130.71,330.67,130.69,346.89z M133.86,346.89
						c0.02-14.46,11.77-26.17,26.24-26.14c14.47,0.02,26.18,11.76,26.15,26.23c-0.02,14.46-11.77,26.17-26.23,26.16
						C145.55,373.11,133.84,361.36,133.86,346.89z"/>
					<path class="st12" d="M142.05,346.91c-0.02,9.94,8.03,18.01,17.97,18.03c9.94,0.01,18.02-8.03,18.03-17.98
						c0.02-9.94-8.03-18.01-17.97-18.03C150.14,328.92,142.07,336.97,142.05,346.91z M148.74,346.92
						c0.01-6.25,5.09-11.31,11.34-11.3c6.25,0.01,11.31,5.08,11.3,11.34c-0.01,6.24-5.09,11.31-11.34,11.3
						C153.79,358.24,148.73,353.17,148.74,346.92z"/>
					<g>
						<path class="st15" d="M148.74,346.92c-0.01,6.25,5.05,11.32,11.3,11.34c6.25,0.01,11.32-5.05,11.34-11.3
							c0.01-6.26-5.05-11.33-11.3-11.34C153.83,335.61,148.75,340.67,148.74,346.92z M155.73,342.6c-0.63,0.63-1.65,0.63-2.28-0.01
							c-0.63-0.63-0.63-1.65,0.01-2.29c0.63-0.63,1.66-0.63,2.29,0.01C156.37,340.94,156.36,341.97,155.73,342.6z M161.01,339.98
							c0,0.52-0.42,0.94-0.95,0.94c-0.52,0-0.94-0.42-0.94-0.94c0-0.52,0.43-0.94,0.95-0.94
							C160.59,339.04,161.01,339.46,161.01,339.98z M166.68,342.61c-0.64,0.63-1.66,0.63-2.29-0.01c-0.63-0.63-0.63-1.66,0.01-2.29
							c0.63-0.63,1.66-0.63,2.29,0.01C167.32,340.96,167.32,341.98,166.68,342.61z M167.01,347.9c-0.53,0-0.94-0.43-0.94-0.95
							c0-0.52,0.42-0.94,0.95-0.94c0.52,0,0.94,0.42,0.94,0.94C167.95,347.47,167.53,347.9,167.01,347.9z M164.38,351.28
							c0.63-0.63,1.66-0.63,2.29,0c0.63,0.64,0.63,1.66,0,2.29c-0.63,0.63-1.66,0.63-2.29,0
							C163.75,352.93,163.75,351.91,164.38,351.28z M159.1,353.89c0-0.52,0.42-0.94,0.94-0.94c0.52,0,0.94,0.42,0.94,0.94
							c0,0.52-0.43,0.94-0.95,0.94C159.52,354.83,159.1,354.41,159.1,353.89z M155.76,346.93c0-2.37,1.93-4.29,4.3-4.29
							c2.37,0.01,4.3,1.93,4.29,4.3c0,2.38-1.93,4.3-4.31,4.3C157.68,351.23,155.76,349.31,155.76,346.93z M153.43,351.26
							c0.63-0.63,1.65-0.63,2.29,0c0.63,0.64,0.63,1.66,0,2.29c-0.63,0.63-1.66,0.63-2.29,0
							C152.8,352.91,152.8,351.89,153.43,351.26z M152.16,346.93c0-0.53,0.42-0.95,0.94-0.94c0.52,0,0.94,0.42,0.94,0.94
							c0,0.52-0.42,0.94-0.95,0.94C152.58,347.87,152.16,347.45,152.16,346.93z"/>
					</g>
					<path class="st15" d="M133.86,346.89c-0.02,14.47,11.69,26.22,26.16,26.24c14.47,0.02,26.21-11.69,26.23-26.16
						c0.02-14.47-11.69-26.21-26.15-26.23C145.63,320.72,133.89,332.43,133.86,346.89z M143.42,337.29c-0.68,1.19-2.36,1.5-3.75,0.7
						c-1.38-0.81-1.95-2.41-1.26-3.6c0.69-1.18,2.36-1.49,3.75-0.69C143.54,334.5,144.11,336.11,143.42,337.29z M160.09,328.93
						c9.94,0.02,17.99,8.09,17.97,18.03c-0.02,9.95-8.09,17.99-18.03,17.98c-9.94-0.02-17.99-8.09-17.97-18.03
						C142.07,336.97,150.14,328.92,160.09,328.93z M150.47,330.27c-1.18,0.68-2.79,0.11-3.59-1.27c-0.79-1.39-0.48-3.06,0.71-3.74
						c1.19-0.68,2.79-0.11,3.59,1.27C151.97,327.92,151.65,329.59,150.47,330.27z M162.57,324.82c0,1.59-1.11,2.89-2.48,2.89
						c-1.37,0-2.47-1.3-2.47-2.9c0-1.6,1.11-2.9,2.48-2.89C161.46,321.92,162.57,323.22,162.57,324.82z M173.29,329.04
						c-0.8,1.38-2.41,1.95-3.6,1.26c-1.18-0.68-1.49-2.37-0.69-3.75c0.8-1.38,2.41-1.95,3.6-1.26
						C173.78,325.98,174.09,327.65,173.29,329.04z M180.47,338.06c-1.38,0.79-3.06,0.48-3.75-0.7c-0.68-1.19-0.11-2.8,1.28-3.6
						c1.39-0.79,3.06-0.48,3.74,0.71C182.42,335.65,181.85,337.26,180.47,338.06z M182.18,349.45c-1.6,0-2.89-1.11-2.89-2.48
						c0-1.37,1.3-2.47,2.9-2.47c1.6,0,2.89,1.11,2.89,2.48C185.07,348.34,183.78,349.45,182.18,349.45z M176.7,356.57
						c0.68-1.18,2.36-1.48,3.74-0.68c1.39,0.8,1.95,2.41,1.27,3.59c-0.69,1.18-2.37,1.49-3.75,0.69
						C176.57,359.37,176.01,357.76,176.7,356.57z M169.65,363.6c1.19-0.68,2.79-0.11,3.59,1.27c0.8,1.38,0.48,3.06-0.7,3.75
						c-1.19,0.68-2.79,0.11-3.59-1.27C168.14,365.96,168.46,364.29,169.65,363.6z M157.54,369.05c0-1.6,1.12-2.89,2.48-2.89
						c1.37,0,2.47,1.3,2.47,2.89c0,1.6-1.11,2.89-2.48,2.89C158.65,371.95,157.54,370.65,157.54,369.05z M146.83,364.83
						c0.8-1.38,2.41-1.95,3.59-1.26c1.18,0.68,1.5,2.36,0.69,3.74c-0.8,1.38-2.41,1.95-3.6,1.26
						C146.33,367.89,146.02,366.22,146.83,364.83z M139.65,355.82c1.38-0.8,3.06-0.48,3.74,0.7c0.68,1.19,0.11,2.79-1.28,3.59
						c-1.38,0.79-3.06,0.48-3.74-0.7C137.69,358.23,138.26,356.62,139.65,355.82z M135.04,346.89c0-1.36,1.3-2.47,2.89-2.47
						c1.6,0,2.9,1.11,2.89,2.48c0,1.36-1.3,2.47-2.9,2.47C136.33,349.37,135.04,348.26,135.04,346.89z"/>
				</g>
			</g>
		</g>
		<g>
			<path class="st13" d="M26.1,362.14c-0.02,7.13,5.74,12.91,12.87,12.93c7.12,0.02,12.91-5.74,12.93-12.87
				c0.02-7.12-5.74-12.91-12.86-12.93C31.9,349.25,26.11,355.01,26.1,362.14z"/>
			<g>
				<path class="st14" d="M21.94,362.14c-0.01,9.42,7.61,17.08,17.03,17.09c9.42,0.01,17.07-7.61,17.09-17.04
					c0.01-9.42-7.61-17.07-17.03-17.09C29.6,345.09,21.95,352.72,21.94,362.14z M23.78,362.14c0.01-8.4,6.84-15.2,15.24-15.18
					c8.4,0.01,15.2,6.83,15.19,15.24c-0.01,8.4-6.83,15.2-15.24,15.19C30.57,377.37,23.77,370.54,23.78,362.14z"/>
				<path class="st12" d="M28.54,362.15c-0.01,5.77,4.67,10.46,10.44,10.47c5.78,0.01,10.46-4.66,10.47-10.44
					c0.01-5.77-4.66-10.46-10.44-10.47C33.24,351.7,28.55,356.38,28.54,362.15z M32.42,362.16c0.01-3.63,2.96-6.57,6.58-6.56
					c3.63,0.01,6.57,2.95,6.56,6.59c-0.01,3.63-2.95,6.57-6.58,6.56C35.35,368.73,32.41,365.79,32.42,362.16z"/>
				<g>
					<path class="st15" d="M32.42,362.16c-0.01,3.63,2.93,6.58,6.56,6.59c3.63,0.01,6.58-2.94,6.58-6.56
						c0.01-3.63-2.93-6.58-6.56-6.59C35.38,355.59,32.43,358.53,32.42,362.16z M36.48,359.65c-0.37,0.36-0.96,0.36-1.33,0
						c-0.37-0.37-0.37-0.96,0-1.33c0.37-0.36,0.96-0.36,1.33,0C36.85,358.69,36.85,359.28,36.48,359.65z M39.55,358.13
						c0,0.3-0.25,0.55-0.55,0.55c-0.3,0-0.55-0.25-0.55-0.55c0-0.3,0.25-0.55,0.55-0.55C39.3,357.58,39.55,357.83,39.55,358.13z
						 M42.84,359.66c-0.37,0.36-0.96,0.36-1.33,0c-0.36-0.37-0.36-0.96,0-1.33c0.37-0.36,0.96-0.36,1.33,0
						C43.21,358.7,43.21,359.29,42.84,359.66z M43.03,362.72c-0.3,0-0.55-0.25-0.55-0.55c0-0.3,0.25-0.55,0.55-0.55
						c0.3,0,0.54,0.24,0.54,0.55C43.58,362.48,43.34,362.72,43.03,362.72z M41.51,364.69c0.37-0.37,0.96-0.37,1.33,0
						c0.37,0.37,0.37,0.96,0,1.33c-0.37,0.37-0.96,0.37-1.33,0C41.14,365.65,41.14,365.05,41.51,364.69z M38.44,366.21
						c0-0.3,0.24-0.55,0.55-0.55c0.3,0,0.55,0.25,0.55,0.55c0,0.3-0.25,0.55-0.55,0.55C38.68,366.75,38.44,366.51,38.44,366.21z
						 M36.5,362.16c0-1.38,1.12-2.49,2.5-2.49c1.38,0,2.49,1.12,2.49,2.5c0,1.38-1.12,2.5-2.5,2.5
						C37.61,364.66,36.5,363.54,36.5,362.16z M35.15,364.68c0.37-0.37,0.96-0.37,1.33,0c0.36,0.37,0.37,0.96,0,1.33
						c-0.37,0.37-0.96,0.37-1.33,0C34.78,365.64,34.78,365.04,35.15,364.68z M34.41,362.16c0-0.31,0.25-0.55,0.55-0.55
						c0.3,0,0.55,0.25,0.55,0.55c0,0.3-0.25,0.55-0.55,0.55C34.65,362.71,34.41,362.46,34.41,362.16z"/>
				</g>
				<path class="st15" d="M23.78,362.14c-0.01,8.4,6.79,15.23,15.19,15.24c8.4,0.01,15.22-6.79,15.24-15.19
					c0.01-8.4-6.79-15.23-15.19-15.24C30.62,346.94,23.8,353.74,23.78,362.14z M29.33,356.57c-0.4,0.69-1.37,0.87-2.18,0.4
					c-0.8-0.47-1.13-1.4-0.73-2.09c0.4-0.69,1.37-0.87,2.18-0.4C29.4,354.95,29.73,355.88,29.33,356.57z M39.01,351.71
					c5.77,0.01,10.45,4.7,10.44,10.47c-0.01,5.78-4.7,10.45-10.47,10.44c-5.77-0.01-10.45-4.7-10.44-10.47
					C28.55,356.38,33.24,351.7,39.01,351.71z M33.43,352.49c-0.69,0.39-1.62,0.07-2.08-0.74c-0.46-0.81-0.28-1.78,0.41-2.17
					c0.69-0.4,1.62-0.07,2.08,0.74C34.3,351.12,34.11,352.09,33.43,352.49z M40.45,349.32c0,0.93-0.65,1.68-1.44,1.68
					c-0.79,0-1.44-0.76-1.43-1.68c0-0.93,0.65-1.68,1.44-1.68C39.81,347.64,40.45,348.39,40.45,349.32z M46.68,351.77
					c-0.47,0.8-1.4,1.13-2.09,0.73c-0.69-0.4-0.87-1.37-0.4-2.18c0.46-0.8,1.4-1.13,2.09-0.73
					C46.97,349.99,47.15,350.97,46.68,351.77z M50.85,357.01c-0.8,0.46-1.78,0.28-2.18-0.41c-0.4-0.69-0.06-1.62,0.74-2.09
					c0.8-0.46,1.78-0.28,2.17,0.41C51.98,355.61,51.65,356.55,50.85,357.01z M51.84,363.62c-0.93,0-1.68-0.64-1.68-1.44
					c0-0.79,0.75-1.43,1.68-1.43c0.93,0,1.68,0.64,1.68,1.44C53.52,362.98,52.77,363.63,51.84,363.62z M48.66,367.76
					c0.4-0.68,1.37-0.86,2.17-0.4c0.81,0.47,1.14,1.4,0.74,2.09c-0.4,0.69-1.37,0.87-2.18,0.4
					C48.59,369.39,48.26,368.45,48.66,367.76z M44.56,371.85c0.69-0.4,1.62-0.06,2.08,0.74c0.46,0.8,0.28,1.78-0.41,2.18
					c-0.69,0.39-1.62,0.06-2.09-0.74C43.69,373.22,43.87,372.24,44.56,371.85z M37.54,375.01c0-0.93,0.65-1.68,1.44-1.68
					c0.79,0,1.44,0.76,1.43,1.68c0,0.93-0.64,1.68-1.44,1.68C38.18,376.69,37.53,375.94,37.54,375.01z M31.31,372.56
					c0.46-0.8,1.4-1.13,2.09-0.73c0.69,0.4,0.87,1.37,0.4,2.17c-0.47,0.8-1.4,1.13-2.09,0.73
					C31.02,374.34,30.84,373.37,31.31,372.56z M27.14,367.33c0.8-0.46,1.78-0.28,2.17,0.41c0.4,0.69,0.06,1.62-0.74,2.08
					c-0.8,0.46-1.78,0.28-2.17-0.41C26,368.72,26.34,367.79,27.14,367.33z M24.47,362.14c0-0.79,0.75-1.43,1.68-1.43
					c0.93,0,1.68,0.64,1.68,1.44c0,0.79-0.76,1.44-1.68,1.43C25.22,363.58,24.47,362.94,24.47,362.14z"/>
			</g>
		</g>
		<g>
			<path class="st1" d="M20.63,313.17c-1.86-0.01-2.14,0.16-3.08,0.52l0.07,0.6c0.22,1.91,0.19,8.05-0.04,9.95l-0.07,0.6
				c0.95,0.38,1.23,0.59,3.08,0.6c6.56,0.03,9.36-4.4,9.36-6.19C29.94,317.02,27.19,313.2,20.63,313.17z"/>
			<path class="st16" d="M17.62,314.29l-0.07-0.6c-0.51,0.19-0.9,0.44-1.15,0.74c-0.92,1.12-0.31,2.94-0.32,4.85
				c-0.01,1.93-0.66,3.68,0.28,4.81c0.25,0.3,0.64,0.55,1.14,0.75l0.07-0.6C17.8,322.34,17.83,316.2,17.62,314.29z"/>
			<path class="st6" d="M16.44,314.43c-2.24-0.13-2.25,9.66-0.04,9.68C16.62,322.29,16.65,316.24,16.44,314.43z"/>
		</g>
	</g>
	<g>
		<path class="st17" d="M261.83,234.89c8.08,7.74,16.15,16.5,24.23,26.15c-8.08,17.27-16.15,35.43-24.23,54.61
			c136.93-96.9,429.99,100.57,566.93,3.66c-8.08-7.74-16.15-16.5-24.23-26.15c8.08-17.27,16.15-35.43,24.23-54.61
			C691.83,335.45,398.77,137.98,261.83,234.89z"/>
		<g>
			<g>
				<path class="st6" d="M311.6,244.02l0.8,2.42l6.49,18.73l0.87,2.39l-4.63,1.61l-0.8-2.42l-2.72-7.87l-3.51,1.22l2.72,7.87
					l0.87,2.39l-4.63,1.61l-0.8-2.41l-6.49-18.73l-0.87-2.39l4.63-1.61l0.8,2.41l2.38,6.88l3.51-1.22l-2.38-6.88l-0.87-2.39
					L311.6,244.02z"/>
				<path class="st6" d="M323.08,265.63c-1.66-0.9-2.79-2.56-3.96-7.44l-1.5-6.3c-1.17-4.91-0.9-6.91,0.18-8.46
					c0.86-1.21,2.19-2.02,4.12-2.48c1.93-0.46,3.48-0.33,4.79,0.37c1.66,0.9,2.83,2.55,4,7.46l1.5,6.3
					c1.16,4.88,0.86,6.88-0.22,8.43c-0.86,1.21-2.19,2.02-4.12,2.48C325.94,266.45,324.39,266.32,323.08,265.63z M327.7,257.16
					l-1.96-8.24c-0.56-2.34-1.01-4.24-2.83-3.8c-1.79,0.42-1.34,2.32-0.78,4.66l1.96,8.24c0.56,2.34,1.01,4.24,2.8,3.81
					C328.71,261.39,328.26,259.49,327.7,257.16z"/>
				<path class="st6" d="M335.52,261.12l-2.64-19.65l-0.37-2.52l6.4-0.86l3.9,11.67c0.3,0.91,0.7,2.23,0.93,3.14l0.14-0.02
					c-0.02-0.95-0.02-2.32,0.03-3.27l0.68-12.29l6.36-0.86l0.3,2.53l2.64,19.65l0.37,2.52l-4.25,0.57l-0.3-2.53l-1.5-11.19
					c-0.13-0.97-0.27-2.32-0.33-3.26l-0.14,0.02c-0.02,0.95-0.06,2.29-0.11,3.25l-0.79,14.13l-3.57,0.48l-4.5-13.42
					c-0.3-0.91-0.69-2.19-0.96-3.1l-0.14,0.02c0.16,0.93,0.41,2.26,0.54,3.23l1.5,11.19l0.37,2.52l-4.25,0.57L335.52,261.12z"/>
				<path class="st6" d="M360.71,249.99l0.38,6.85l6.3-0.35l0.22,4.04l-11.16,0.62l-0.1-2.54l-1.09-19.8l-0.18-2.54l11.02-0.61
					l0.22,4.04l-6.16,0.34l0.32,5.81l4.97-0.27l0.23,4.14L360.71,249.99z"/>
				<path class="st6" d="M380.2,239.64l-0.12,18.32l0.02,2.54l-4.87-0.03l0.05-2.54l0.12-18.32l-4.11-0.03l0.03-4.04l13.05,0.09
					l-0.03,4.04L380.2,239.64z"/>
				<path class="st6" d="M386.67,259.61c-1.34-1.32-1.97-3.24-1.71-8.25l0.33-6.47c0.25-5.04,1.07-6.89,2.54-8.07
					c1.17-0.92,2.67-1.33,4.65-1.23c1.98,0.1,3.43,0.66,4.5,1.69c1.34,1.32,2,3.24,1.75,8.28l-0.33,6.47
					c-0.25,5.01-1.1,6.85-2.57,8.03c-1.17,0.92-2.67,1.33-4.65,1.23S387.74,260.64,386.67,259.61z M393.48,252.76l0.43-8.45
					c0.12-2.4,0.22-4.35-1.65-4.44c-1.84-0.09-1.94,1.86-2.06,4.26l-0.43,8.45c-0.12,2.4-0.22,4.35,1.62,4.44
					C393.26,257.11,393.36,255.17,393.48,252.76z"/>
				<path class="st6" d="M406.78,262l-4.81-0.48l6.71-24.37l6.57,0.66l1.76,25.21l-4.77-0.48l-0.23-5l-4.06-0.41L406.78,262z
					 M408.97,253.08l2.84,0.28l-0.26-6.47c-0.03-1.19-0.08-2.88-0.05-3.82l-0.18-0.02c-0.17,0.93-0.51,2.58-0.81,3.74L408.97,253.08
					z"/>
				<path class="st6" d="M421.63,261.06l2.72-19.63l0.31-2.52l6.22,0.86c5.61,0.78,6.54,4.28,5.96,8.46l-0.01,0.07
					c-0.57,4.14-2.42,7.26-8.03,6.48l-1.39-0.19l-0.99,7.14l-0.31,2.52l-4.86-0.67L421.63,261.06z M428.91,250.78
					c2.11,0.29,2.78-1.16,3.05-3.13l0.02-0.17c0.27-1.97,0.02-3.55-2.09-3.84l-0.96-0.13l-0.99,7.14L428.91,250.78z"/>
				<path class="st6" d="M441.93,255.59l-1.1,6.77l6.23,1.01l-0.65,3.99l-11.04-1.79l0.44-2.5l3.18-19.56l0.37-2.52l10.89,1.77
					l-0.65,3.99l-6.09-0.99l-0.93,5.74l4.91,0.8l-0.66,4.09L441.93,255.59z"/>
				<path class="st6" d="M454.48,258.55l-1.36,7.44l-0.42,2.51l-4.82-0.88l0.49-2.5l3.58-19.5l0.42-2.51l6.24,1.14
					c5.5,1.01,6.27,4.58,5.53,8.63l-0.01,0.07c-0.46,2.5-1.53,4.54-3.64,5.46l1.01,11.7l-5.04-0.92l-0.66-10.39L454.48,258.55z
					 M455.18,254.75l0.89,0.16c2.2,0.4,2.91-1.06,3.25-2.91l0.01-0.07c0.34-1.85,0.16-3.48-1.93-3.86l-0.96-0.18L455.18,254.75z"/>
				<path class="st6" d="M469.5,260.75l-1.61,8.06l-0.46,2.5l-4.81-0.96l0.53-2.49l3.89-19.44l0.46-2.5l10.68,2.14l-0.79,3.96
					l-5.9-1.18l-1.17,5.84l4.74,0.95l-0.81,4.07L469.5,260.75z"/>
				<path class="st6" d="M481.26,263.04l-1.43,6.71l6.17,1.31l-0.84,3.95l-10.93-2.33l0.56-2.48l4.12-19.39l0.49-2.5l10.79,2.3
					l-0.84,3.95l-6.03-1.28l-1.21,5.69l4.87,1.04l-0.86,4.05L481.26,263.04z"/>
				<path class="st6" d="M488.79,274.75c-1.1-1.53-1.37-3.59-0.29-8.42l1.42-6.32c1.09-4.86,2.22-6.61,3.87-7.52
					c1.05-0.58,2.57-0.92,4.82-0.42c2,0.45,3.26,1.27,4.11,2.42c1.16,1.58,1.4,3.63,0.42,7.99l-0.02,0.1l-4.79-1.07l0.02-0.1
					c0.65-2.89,1.07-4.76-0.73-5.16c-1.79-0.4-2.21,1.47-2.75,3.85l-1.85,8.26c-0.53,2.38-0.95,4.25,0.88,4.66
					c1.87,0.42,2.29-1.49,3.05-4.85l0.02-0.1l4.75,1.07l-0.02,0.1c-1.12,5-2.3,6.63-3.95,7.54c-1.26,0.68-2.78,0.88-4.79,0.43
					C490.72,276.68,489.49,275.73,488.79,274.75z"/>
				<path class="st6" d="M513.14,259.98l-4.16,17.84l-0.54,2.48l-4.74-1.1l0.61-2.47l4.16-17.84l-4-0.93l0.92-3.93l12.71,2.96
					l-0.92,3.94L513.14,259.98z"/>
				<path class="st6" d="M516.93,282.31l0.63-2.46l4.63-19.27l0.56-2.48l4.77,1.14l-0.63,2.46l-4.28,17.82l5.51,1.32l-0.94,3.93
					L516.93,282.31z"/>
				<path class="st6" d="M538.93,261.99l-0.63,2.46l-4.67,19.27l-0.56,2.48l-4.77-1.16l0.63-2.46l4.67-19.27l0.56-2.48
					L538.93,261.99z"/>
				<path class="st6" d="M536.25,284.36l4.71-19.26l0.57-2.48l4.83,1.18l1.32,10.69c0.16,1.33,0.28,2.36,0.31,3.27l0.11,0.03
					c0.18-0.89,0.43-2.23,0.66-3.17l1.75-7.17l0.57-2.48l4.59,1.12l-0.64,2.46l-4.71,19.26l-0.57,2.48l-4.24-1.04l-1.58-12.22
					c-0.18-1.41-0.28-2.36-0.31-3.27l-0.11-0.03c-0.21,0.88-0.43,2.23-0.66,3.17l-2.09,8.56l-0.57,2.48l-4.59-1.12L536.25,284.36z"
					/>
				<path class="st6" d="M554.13,290.27c-1.07-1.55-1.31-3.62-0.14-8.42l1.53-6.29c1.18-4.84,2.34-6.56,4-7.45
					c1.07-0.57,2.59-0.88,4.83-0.33c2,0.49,3.24,1.33,4.07,2.5c1.13,1.6,1.34,3.66,0.28,7.99l-0.03,0.1l-4.76-1.16l0.03-0.1
					c0.7-2.88,1.15-4.74-0.63-5.17c-1.79-0.43-2.24,1.43-2.82,3.8l-2,8.22c-0.58,2.37-1.03,4.23,0.79,4.67
					c1.86,0.45,2.32-1.44,3.13-4.79l0.02-0.1l4.73,1.15l-0.02,0.1c-1.21,4.97-2.42,6.58-4.08,7.47c-1.27,0.66-2.8,0.82-4.79,0.34
					C556.03,292.24,554.82,291.26,554.13,290.27z"/>
				<path class="st6" d="M568.6,293.79c-1.08-1.55-1.34-3.54-0.17-8.42l1.51-6.3c1.18-4.91,2.32-6.57,3.98-7.46
					c1.31-0.69,2.87-0.82,4.79-0.35c1.93,0.46,3.25,1.28,4.11,2.49c1.07,1.55,1.37,3.55,0.19,8.47l-1.51,6.3
					c-1.17,4.88-2.35,6.53-4.01,7.42c-1.31,0.69-2.87,0.82-4.79,0.35C570.78,295.82,569.46,295,568.6,293.79z M576.55,288.32
					l1.98-8.23c0.56-2.34,1.02-4.23-0.81-4.67c-1.79-0.43-2.24,1.47-2.8,3.8l-1.98,8.23c-0.56,2.34-1.02,4.23,0.77,4.66
					C575.53,292.55,575.99,290.66,576.55,288.32z"/>
				<path class="st6" d="M581.41,297.93l0.62-2.47l4.52-19.3l0.55-2.48l4.77,1.12l-0.62,2.47l-4.18,17.84l5.51,1.29l-0.92,3.93
					L581.41,297.93z"/>
				<path class="st6" d="M593.34,298.12l4.36-19.33l0.52-2.49l4.85,1.1l1.51,10.66c0.18,1.33,0.32,2.36,0.37,3.26l0.11,0.02
					c0.16-0.89,0.39-2.23,0.61-3.18l1.62-7.2l0.52-2.49l4.61,1.04l-0.59,2.47l-4.36,19.33l-0.52,2.49l-4.26-0.96l-1.8-12.19
					c-0.2-1.4-0.32-2.36-0.37-3.26l-0.11-0.02c-0.2,0.88-0.39,2.23-0.61,3.18l-1.94,8.6l-0.52,2.49l-4.61-1.04L593.34,298.12z"/>
				<path class="st6" d="M614.04,297.87c-0.17,2.38,0.42,3.58,1.76,3.86c1.2,0.26,2.1-0.34,2.37-1.63c0.28-1.33-0.36-2.64-1.79-4.41
					l-1.84-2.28c-2.19-2.71-2.7-5.17-2.17-7.66c0.85-3.84,4.11-5.82,7.96-5c3.88,0.83,5.55,3.71,5.11,8.03l-4.59-0.59
					c0.16-1.78-0.17-2.99-1.41-3.26c-1.09-0.23-1.91,0.48-2.17,1.71c-0.3,1.43,0.4,2.47,1.74,4.14l1.84,2.28
					c2.25,2.76,2.85,5.31,2.3,7.9c-0.84,3.95-4.08,5.86-8.2,4.95c-4.05-0.9-5.97-3.98-5.46-8.64L614.04,297.87z"/>
				<path class="st6" d="M641.04,285.38l-0.53,2.49l-3.83,19.45l-0.46,2.5l-4.81-0.95l0.53-2.49l1.61-8.17l-3.64-0.72l-1.61,8.17
					l-0.46,2.5l-4.81-0.95l0.53-2.49l3.83-19.45l0.46-2.5l4.81,0.95l-0.53,2.49l-1.41,7.14l3.64,0.72l1.41-7.14l0.46-2.5
					L641.04,285.38z"/>
				<path class="st6" d="M648.02,286.64l-0.49,2.5l-3.55,19.5l-0.42,2.51l-4.82-0.88l0.49-2.5l3.55-19.5l0.42-2.51L648.02,286.64z"
					/>
				<path class="st6" d="M652.51,302.44l-1.23,7.46l-0.38,2.52l-4.84-0.8l0.45-2.5l3.23-19.56l0.38-2.52l6.26,1.03
					c5.52,0.91,6.35,4.47,5.68,8.53l-0.01,0.07c-0.41,2.51-1.45,4.56-3.54,5.52l1.21,11.68l-5.05-0.83l-0.84-10.38L652.51,302.44z
					 M653.14,298.62l0.89,0.15c2.21,0.36,2.89-1.11,3.2-2.97l0.01-0.07c0.31-1.86,0.1-3.48-2-3.83l-0.96-0.16L653.14,298.62z"/>
				<path class="st6" d="M667.52,303.94l-0.95,6.8l6.25,0.88l-0.56,4l-11.07-1.55l0.39-2.51l2.75-19.63l0.32-2.52l10.93,1.53
					l-0.56,4l-6.11-0.86l-0.81,5.76l4.93,0.69l-0.58,4.11L667.52,303.94z"/>
				<path class="st6" d="M682.59,309.48c0.08,2.39,0.8,3.51,2.17,3.65c1.22,0.12,2.05-0.56,2.18-1.88c0.14-1.35-0.64-2.59-2.26-4.18
					l-2.07-2.07c-2.47-2.46-3.24-4.84-2.99-7.37c0.43-3.91,3.46-6.23,7.37-5.83c3.95,0.4,5.92,3.08,5.95,7.43l-4.63-0.08
					c-0.04-1.79-0.5-2.96-1.75-3.08c-1.11-0.11-1.85,0.69-1.97,1.94c-0.15,1.46,0.66,2.41,2.17,3.93l2.07,2.07
					c2.54,2.5,3.41,4.97,3.14,7.6c-0.41,4.02-3.42,6.27-7.62,5.81c-4.12-0.45-6.37-3.31-6.37-8L682.59,309.48z"/>
				<path class="st6" d="M696.68,318.04l-4.82-0.3l5.78-24.6l6.59,0.4l2.72,25.12l-4.79-0.29l-0.42-4.98l-4.07-0.25L696.68,318.04z
					 M698.53,309.04l2.84,0.17l-0.51-6.45c-0.07-1.19-0.18-2.87-0.2-3.82l-0.18-0.01c-0.13,0.93-0.41,2.59-0.67,3.76L698.53,309.04z
					"/>
				<path class="st6" d="M722.17,293.97l-0.07,2.54l-0.19,16.06c-0.05,4.32-2.64,6.69-6.75,6.64c-4.11-0.05-6.61-2.48-6.56-6.8
					l0.19-16.06l-0.01-2.54l4.87,0.06l-0.07,2.54l-0.18,15.54c-0.02,1.92,0.43,2.97,1.8,2.98s1.89-1.02,1.91-2.94l0.18-15.54
					l-0.01-2.54L722.17,293.97z"/>
				<path class="st6" d="M728.04,311.38c0.44,2.35,1.32,3.35,2.68,3.29c1.22-0.06,1.95-0.86,1.88-2.18
					c-0.06-1.36-1.02-2.46-2.85-3.8l-2.36-1.74c-2.81-2.06-3.92-4.31-4.05-6.85c-0.15-3.93,2.5-6.67,6.42-6.86
					c3.96-0.19,6.31,2.18,6.99,6.47l-4.59,0.6c-0.3-1.76-0.93-2.85-2.19-2.79c-1.12,0.05-1.72,0.95-1.66,2.21
					c0.07,1.46,1.01,2.29,2.73,3.57l2.36,1.74c2.88,2.09,4.11,4.41,4.24,7.05c0.19,4.04-2.46,6.71-6.68,6.87
					c-4.15,0.16-6.79-2.33-7.48-6.97L728.04,311.38z"/>
				<path class="st6" d="M743.71,317.58l-4.8,0.57l1.28-25.24l6.55-0.78l7.17,24.23l-4.76,0.57l-1.3-4.83l-4.05,0.48L743.71,317.58z
					 M743.93,308.4l2.83-0.34l-1.65-6.26c-0.28-1.16-0.7-2.79-0.88-3.72l-0.18,0.02c0.04,0.94,0.06,2.62,0.02,3.82L743.93,308.4z"/>
				<path class="st6" d="M760.01,301.71l6.63-1.41l2.73,12.88l-2.12,0.45l-1.34-1.64l-0.07,0.01c-0.64,1.67-1.72,2.68-3.66,3.09
					c-1.73,0.37-3.19,0.07-4.28-0.55c-1.64-0.93-2.75-2.69-3.77-7.53l-1.34-6.34c-1.03-4.87-0.73-6.93,0.38-8.45
					c0.92-1.23,2.31-1.99,4.18-2.38c2.01-0.43,3.57-0.22,4.82,0.47c1.55,0.88,2.73,2.45,3.69,6.94l0.04,0.17l-4.83,1.03l-0.04-0.17
					c-0.58-2.73-0.98-4.63-2.78-4.25c-1.8,0.38-1.39,2.29-0.89,4.64l1.76,8.28c0.55,2.59,0.9,4.26,2.77,3.86
					c2.12-0.45,1.65-2.63,1.1-5.25l-0.04-0.2l-2.05,0.43L760.01,301.71z"/>
				<path class="st6" d="M774.34,300.27l2.1,6.53l6.01-1.93l1.24,3.85l-10.64,3.42l-0.75-2.43l-6.07-18.87l-0.81-2.41l10.51-3.38
					l1.24,3.85l-5.87,1.89l1.78,5.54l4.74-1.52l1.27,3.95L774.34,300.27z"/>
			</g>
		</g>
	</g>
</g>
</svg>
